<svg width="460" height="175" xmlns="http://www.w3.org/2000/svg" xmlns:xlink="http://www.w3.org/1999/xlink" xml:space="preserve" overflow="hidden"><defs><clipPath id="clip0"><rect x="650" y="148" width="460" height="175"/></clipPath></defs><g clip-path="url(#clip0)" transform="translate(-650 -148)"><path d="M410.044 226.247C410.044 232.655 405.42 235.794 398.455 241.009 391.643 246.096 380.075 253.579 373.185 257.683 366.298 261.791 355.087 268.116 347.349 271.823 339.535 275.559 333.308 278.031 329.533 278.031 325.758 278.031 323.154 276.845 321.285 274.378 319.436 271.913 318.342 268.301 317.605 263.734 316.85 259.171 316.474 253.645 316.265 247.342 316.077 241.031 316.059 226.247 316.059 226.247 316.059 226.247 316.077 211.46 316.265 205.15 316.474 198.845 316.85 193.319 317.605 188.757 318.342 184.191 319.436 180.578 321.285 178.114 323.154 175.646 325.758 174.459 329.533 174.459 333.308 174.459 339.535 176.932 347.349 180.669 355.087 184.373 366.298 190.702 373.185 194.809 380.075 198.913 391.643 206.395 398.455 211.481 405.42 216.698 410.044 219.837 410.044 226.247" fill="#BB2025" transform="matrix(1 0 0 -1.00049 651.332 458.367)"/><path d="M399.74 234.065 398.286 234.065C397.626 234.065 397.061 233.512 397.061 232.832L397.061 219.652C397.061 218.974 397.626 218.42 398.286 218.42L399.74 218.42C400.418 218.42 400.966 218.974 400.966 219.652L400.966 232.832C400.966 233.512 400.418 234.065 399.74 234.065" fill="#D12E10" transform="matrix(1 0 0 -1.00049 651.332 458.367)"/><path d="M355.275 237.974 356.729 237.974C357.407 237.974 357.956 238.529 357.956 239.205L357.956 260.208C357.956 260.89 357.407 261.439 356.729 261.439L355.275 261.439C354.597 261.439 354.049 260.89 354.049 260.208L354.049 239.205C354.049 238.529 354.597 237.974 355.275 237.974" fill="#D12E10" transform="matrix(1 0 0 -1.00049 651.332 458.367)"/><path d="M368.449 202.776 367.015 202.776C366.316 202.776 365.769 202.223 365.769 201.542L365.769 200.098C365.769 199.419 366.316 198.865 367.015 198.865L368.449 198.865C369.128 198.865 369.694 199.419 369.694 200.098L369.694 201.542C369.694 202.223 369.128 202.776 368.449 202.776" fill="#D12E10" transform="matrix(1 0 0 -1.00049 651.332 458.367)"/><path d="M323.983 245.799 341.083 245.799C341.764 245.799 342.309 246.354 342.309 247.032L342.309 253.622 348.896 253.622C349.576 253.622 350.123 254.174 350.123 254.843L350.123 264.117C350.123 264.801 349.576 265.354 348.896 265.354L347.444 265.354C346.782 265.354 346.216 264.801 346.216 264.117L346.216 257.529 342.309 257.529 342.309 268.038C342.309 268.715 341.764 269.263 341.083 269.263L331.798 269.263C331.118 269.263 330.571 268.71 330.571 268.032L330.571 254.843C330.571 254.174 331.136 253.622 331.817 253.622L338.403 253.622 338.403 249.712 326.665 249.712 326.665 264.117C326.665 264.801 326.116 265.35 325.438 265.35L323.983 265.35C323.306 265.35 322.758 264.801 322.758 264.117L322.758 247.032C322.758 246.354 323.306 245.799 323.983 245.799ZM338.403 257.529 338.403 257.529 334.478 257.529 334.496 265.35 338.403 265.35Z" fill="#D12E10" transform="matrix(1 0 0 -1.00049 651.332 458.367)"/><path d="M391.928 237.974 390.473 237.974C389.793 237.974 389.245 237.421 389.245 236.743L389.245 218.42 382.64 218.42C381.98 218.42 381.414 217.861 381.414 217.19L381.414 210.596 377.507 210.596 377.507 217.19C377.507 217.868 376.942 218.426 376.281 218.426L363.089 218.426C362.409 218.426 361.861 217.868 361.861 217.19L361.861 215.742C361.861 215.061 362.409 214.508 363.089 214.508L373.6 214.508 373.6 210.596 357.956 210.596 357.956 222.332 368.449 222.332C369.128 222.332 369.694 222.889 369.694 223.56L369.694 225.01C369.694 225.686 369.128 226.247 368.449 226.247L355.275 226.247C354.597 226.247 354.049 225.692 354.049 225.01L354.049 207.922C354.049 207.249 354.597 206.687 355.275 206.687L373.6 206.687 373.6 204.009C373.6 203.329 374.147 202.776 374.828 202.776L376.281 202.776C376.96 202.776 377.507 203.329 377.507 204.009L377.507 206.687 384.094 206.687C384.773 206.687 385.322 207.256 385.322 207.933L385.322 214.508 391.928 214.508C392.605 214.508 393.153 215.061 393.153 215.742L393.153 236.743C393.153 237.421 392.605 237.974 391.928 237.974" fill="#D12E10" transform="matrix(1 0 0 -1.00049 651.332 458.367)"/><path d="M360.636 202.776 351.349 202.776C350.671 202.776 350.123 202.223 350.123 201.542L350.123 194.952 326.665 194.952 326.665 198.865 344.989 198.865C345.669 198.865 346.216 199.419 346.216 200.098L346.216 201.537C346.216 202.223 345.669 202.776 344.989 202.776L323.983 202.776C323.306 202.776 322.758 202.227 322.758 201.55L322.758 192.269C322.758 191.594 323.324 191.043 323.983 191.043L352.804 191.043C353.481 191.043 354.049 191.594 354.049 192.269L354.049 198.861 357.954 198.861 357.954 196.179C357.954 195.503 358.502 194.952 359.163 194.952L360.636 194.952C361.314 194.952 361.861 195.503 361.861 196.179L361.861 201.542C361.861 202.223 361.314 202.776 360.636 202.776" fill="#D12E10" transform="matrix(1 0 0 -1.00049 651.332 458.367)"/><path d="M329.306 187.131 327.929 187.131C327.231 187.131 326.665 186.562 326.665 185.868L326.665 184.48C326.665 183.787 327.231 183.22 327.929 183.22L329.306 183.22C330.005 183.22 330.571 183.787 330.571 184.48L330.571 185.868C330.571 186.562 330.005 187.131 329.306 187.131" fill="#D12E10" transform="matrix(1 0 0 -1.00049 651.332 458.367)"/><path d="M337.139 187.131 335.742 187.131C335.062 187.131 334.478 186.562 334.478 185.868L334.478 184.48C334.478 183.787 335.062 183.22 335.742 183.22L337.139 183.22C337.838 183.22 338.403 183.787 338.403 184.48L338.403 185.868C338.403 186.562 337.838 187.131 337.139 187.131" fill="#D12E10" transform="matrix(1 0 0 -1.00049 651.332 458.367)"/><path d="M324.022 210.594C323.324 210.594 322.758 210.023 322.758 209.328L322.758 207.951C322.758 207.256 323.324 206.687 324.022 206.687L325.399 206.687C326.098 206.687 326.665 207.256 326.665 207.951L326.665 209.328C326.665 210.023 326.098 210.594 325.399 210.594Z" fill="#D12E10" transform="matrix(1 0 0 -1.00049 651.332 458.367)"/><path d="M331.834 210.596C331.136 210.596 330.571 210.028 330.571 209.335L330.571 207.951C330.571 207.254 331.136 206.687 331.834 206.687L333.213 206.687C333.912 206.687 334.478 207.254 334.478 207.951L334.478 209.335C334.478 210.028 333.912 210.596 333.213 210.596Z" fill="#D12E10" transform="matrix(1 0 0 -1.00049 651.332 458.367)"/><path d="M338.403 209.335 338.403 207.951C338.403 207.256 338.969 206.687 339.668 206.687L348.896 206.687C349.576 206.687 350.123 207.243 350.123 207.922L350.123 225.01C350.123 225.692 349.576 226.247 348.896 226.247L347.444 226.247C346.782 226.247 346.216 225.692 346.216 225.01L346.216 210.596 339.668 210.596C338.969 210.596 338.403 210.028 338.403 209.335" fill="#D12E10" transform="matrix(1 0 0 -1.00049 651.332 458.367)"/><path d="M374.864 226.247C374.168 226.247 373.6 225.674 373.6 224.977L373.6 223.591C373.6 222.897 374.168 222.332 374.864 222.332L376.243 222.332C376.942 222.332 377.507 222.897 377.507 223.591L377.507 224.977C377.507 225.674 376.942 226.247 376.243 226.247Z" fill="#D12E10" transform="matrix(1 0 0 -1.00049 651.332 458.367)"/><path d="M370.938 249.712 372.336 249.712C373.035 249.712 373.6 250.274 373.6 250.969L373.6 252.353C373.6 253.048 373.035 253.622 372.336 253.622L370.938 253.622C370.261 253.622 369.694 253.048 369.694 252.353L369.694 250.969C369.694 250.274 370.261 249.712 370.938 249.712" fill="#D12E10" transform="matrix(1 0 0 -1.00049 651.332 458.367)"/><path d="M348.859 249.712 347.481 249.712C346.782 249.712 346.216 249.139 346.216 248.442L346.216 247.058C346.216 246.361 346.782 245.799 347.481 245.799L348.859 245.799C349.557 245.799 350.123 246.361 350.123 247.058L350.123 248.442C350.123 249.139 349.557 249.712 348.859 249.712" fill="#D12E10" transform="matrix(1 0 0 -1.00049 651.332 458.367)"/><path d="M341.044 234.061 339.668 234.061C338.969 234.061 338.403 233.491 338.403 232.8L338.403 231.411C338.403 230.723 338.969 230.152 339.668 230.152L341.044 230.152C341.743 230.152 342.309 230.723 342.309 231.411L342.309 232.8C342.309 233.491 341.743 234.061 341.044 234.061" fill="#D12E10" transform="matrix(1 0 0 -1.00049 651.332 458.367)"/><path d="M384.056 226.247 382.679 226.247C381.999 226.247 381.414 225.674 381.414 224.977L381.414 223.595C381.414 222.897 381.999 222.332 382.679 222.332L384.056 222.332C384.773 222.332 385.322 222.897 385.322 223.595L385.322 224.977C385.322 225.674 384.773 226.247 384.056 226.247" fill="#D12E10" transform="matrix(1 0 0 -1.00049 651.332 458.367)"/><path d="M323.983 214.508 341.083 214.508C341.764 214.508 342.309 215.061 342.309 215.742L342.309 225.01C342.309 225.686 341.764 226.24 341.083 226.24L334.496 226.24 334.496 237.974 346.216 237.974 346.216 231.413C346.216 230.721 346.782 230.15 347.481 230.15L384.094 230.15C384.773 230.15 385.32 230.711 385.32 231.385L385.32 244.572C385.32 245.244 384.773 245.799 384.094 245.799L374.846 245.799C374.168 245.799 373.6 245.244 373.6 244.572L373.6 241.883 365.769 241.883 365.769 256.299C365.769 256.974 365.221 257.53 364.542 257.53L363.089 257.53C362.409 257.53 361.861 256.974 361.861 256.299L361.861 234.065 350.123 234.065 350.123 240.657C350.123 241.332 349.576 241.883 348.896 241.883L331.817 241.883C331.136 241.883 330.571 241.332 330.571 240.657L330.571 223.554C330.571 222.884 331.136 222.332 331.817 222.332L338.403 222.332 338.403 218.426 326.665 218.426 326.665 240.652C326.665 241.327 326.116 241.883 325.438 241.883L323.983 241.883C323.306 241.883 322.758 241.337 322.758 240.657L322.758 215.742C322.758 215.061 323.306 214.508 323.983 214.508ZM365.769 237.974 365.769 237.974 377.507 237.974 377.507 241.883 381.414 241.883 381.414 234.065 365.769 234.065Z" fill="#D12E10" transform="matrix(1 0 0 -1.00049 651.332 458.367)"/><path d="M285.899 256.085C285.446 256.085 284.898 256.207 284.898 256.451L284.898 259.626C284.898 259.841 285.446 259.994 285.899 259.994L288.749 259.994C289.712 259.994 289.957 260.024 289.957 261.004L289.957 265.859C289.957 267.112 289.937 268.489 289.9 269.952 289.9 270.29 290.145 270.533 290.523 270.533L293.091 270.533C293.543 270.533 293.732 270.29 293.75 269.952 293.789 268.64 293.808 267.693 293.808 266.806L293.808 262.745C293.808 260.149 293.808 258.405 293.694 257.309 293.599 256.913 293.487 256.635 292.995 256.419 292.146 256.177 289.712 256.085 288.07 256.085ZM287.674 252.725 287.674 252.725C287.674 253.122 288.013 253.428 288.373 253.428L290.732 253.428C291.128 253.428 291.485 253.122 291.485 252.725L291.485 250.28C291.485 249.946 291.128 249.64 290.732 249.64L288.373 249.64C288.013 249.64 287.674 249.946 287.674 250.28ZM274.689 256.085 274.689 256.085C274.237 256.085 273.688 256.207 273.688 256.451L273.688 259.626C273.688 259.841 274.237 259.994 274.689 259.994L277.558 259.994C278.256 259.994 279.332 260.089 279.332 261.035L279.332 269.862C279.332 270.2 279.577 270.444 279.955 270.444L282.596 270.444C282.937 270.444 283.182 270.2 283.182 269.862L283.182 260.514C283.428 260.089 284.617 259.994 285.164 259.994L285.899 259.994 285.899 256.085 285.541 256.085C283.975 256.085 282.276 256.268 281.199 257.123 280.068 256.329 278.293 256.085 276.992 256.085ZM279.312 275.634 279.312 275.634C279.312 276.034 279.634 276.341 280.029 276.341L282.445 276.341C282.823 276.341 283.125 276.034 283.125 275.634L283.125 273.251C283.125 272.887 282.823 272.579 282.427 272.579L280.029 272.579C279.577 272.579 279.312 272.887 279.312 273.251ZM252.815 265.737 252.815 265.737C253.156 265.737 253.344 265.553 253.344 265.159 253.307 264.699 253.307 263.996 253.307 263.784 253.307 260.853 254.777 259.994 258.836 259.994L266.233 259.994C266.969 259.994 267.97 260.089 267.97 261.035L267.97 278.692C267.97 279.055 268.254 279.33 268.593 279.33L271.33 279.33C271.668 279.33 271.953 279.055 271.953 278.692L271.953 260.514C272.198 260.089 273.292 259.994 273.858 259.994L274.669 259.994 274.669 256.085 274.294 256.085C273.065 256.085 271.29 256.24 270.084 256.94 268.989 256.24 267.234 256.085 265.856 256.085L258.155 256.085C251.626 256.085 249.701 258.498 249.701 262.745 249.701 263.141 249.738 264.516 249.889 265.128 250.004 265.586 250.135 265.737 250.531 265.737ZM257.193 268.211 257.193 268.211C257.193 268.458 257.363 268.579 257.742 268.579L258.194 268.579C257.949 268.977 257.799 269.709 257.799 270.29 257.799 272.273 259.044 273.346 261.251 273.346 261.61 273.346 262.196 273.314 262.78 273.161 263.044 273.1 263.176 272.917 263.176 272.643L263.176 271.543C263.176 271.267 263.044 271.145 262.78 271.145 262.535 271.145 261.799 271.204 261.554 271.204 260.611 271.204 260.176 270.688 260.176 269.923 260.176 269.283 260.46 268.795 260.666 268.668L262.97 268.668C263.327 268.668 263.515 268.519 263.515 268.246L263.515 266.991C263.515 266.714 263.327 266.561 262.97 266.561L257.742 266.561C257.363 266.561 257.193 266.714 257.193 266.991ZM235.623 277.01 235.623 277.01C235.284 277.01 235.133 277.132 235.133 277.376L235.133 278.262C235.133 278.475 235.284 278.569 235.623 278.569L236.207 278.569C235.868 279.055 235.717 279.695 235.717 280.31 235.717 282.021 236.718 282.876 238.774 282.876 239.095 282.876 239.718 282.843 240.208 282.691 240.417 282.662 240.547 282.539 240.547 282.388L240.547 281.561C240.547 281.348 240.417 281.256 240.151 281.256L239.077 281.256C238 281.256 237.546 280.922 237.546 280.036 237.546 279.33 237.831 278.812 238.188 278.596L240.322 278.596C240.662 278.596 240.813 278.506 240.813 278.292L240.813 277.376C240.813 277.132 240.662 277.01 240.322 277.01ZM236.17 274.473 236.17 274.473C236.17 274.81 236.415 275.085 236.772 275.085L239.53 275.085C239.906 275.085 240.151 274.81 240.151 274.473L240.151 256.727C240.151 256.392 239.906 256.085 239.53 256.085L236.772 256.085C236.415 256.085 236.17 256.392 236.17 256.727ZM222.582 256.085 222.582 256.085C222.11 256.085 221.581 256.207 221.581 256.451L221.581 259.626C221.581 259.841 222.11 259.994 222.582 259.994L225.733 259.994C226.695 259.994 226.94 260.024 226.94 261.004L226.94 265.769C226.94 267.018 226.922 268.397 226.885 269.862 226.885 270.2 227.13 270.444 227.508 270.444L230.054 270.444C230.527 270.444 230.696 270.2 230.735 269.862 230.772 268.55 230.791 267.599 230.791 266.714L230.791 262.745C230.791 260.149 230.791 258.405 230.678 257.309 230.584 256.913 230.452 256.635 229.979 256.419 229.111 256.177 226.695 256.085 225.053 256.085ZM224.657 252.725 224.657 252.725C224.657 253.122 224.998 253.428 225.356 253.428L227.715 253.428C228.111 253.428 228.47 253.122 228.47 252.725L228.47 250.28C228.47 249.946 228.111 249.64 227.715 249.64L225.356 249.64C224.998 249.64 224.657 249.946 224.657 250.28ZM207.918 251.776 207.918 251.776C207.918 252.118 208.106 252.298 208.464 252.298L211.24 252.298C214.428 252.298 216.109 252.849 216.109 255.168L216.109 256.085 213.862 256.085C209.446 256.085 206.785 258.376 206.785 262.803L206.785 263.415C206.785 268.211 209.71 270.961 214.975 270.961 216.523 270.961 218.599 270.747 219.467 270.444 219.863 270.29 219.977 270.2 219.977 269.862L219.977 259.994 222.676 259.994 222.676 256.085 219.92 256.085 219.92 255.046C219.524 250.037 216.26 248.817 212.069 248.817 211.37 248.817 208.862 248.817 208.409 248.969 208.012 249.06 207.918 249.213 207.918 249.548ZM210.635 263.293 210.635 263.293C210.635 260.973 211.579 259.875 213.862 259.875L216.164 259.875 216.164 267.324C215.58 267.387 214.939 267.418 214.297 267.418 211.975 267.418 210.635 266.043 210.635 263.69ZM190.631 277.164 190.631 277.164C190.631 277.558 190.951 277.867 191.366 277.867L193.764 277.867C194.14 277.867 194.442 277.558 194.442 277.164L194.442 274.779C194.442 274.413 194.14 274.107 193.744 274.107L191.366 274.107C190.894 274.107 190.631 274.413 190.631 274.779ZM177.589 259.447 177.589 259.447C177.589 259.781 177.853 259.994 178.194 259.994L182.156 259.994 182.156 278.692C182.156 279.055 182.401 279.33 182.779 279.33L185.553 279.33C185.892 279.33 186.137 279.055 186.137 278.692L186.137 269.374C188.271 270.839 191.423 271.021 192.857 271.021 198.084 271.021 201.444 268.885 201.444 262.834L201.444 261.585C201.444 260.238 201.313 258.345 201.047 257.123 200.953 256.727 200.709 256.329 200.067 256.24 198.933 256.085 194.385 256.085 192.648 256.085L178.194 256.085C177.853 256.085 177.589 256.301 177.589 256.635ZM196.971 259.904 196.971 259.904C197.499 259.904 197.594 260.238 197.594 261.919L197.594 262.378C197.594 266.104 195.858 267.297 191.856 267.297 190.48 267.297 187.667 267.112 186.137 265.982L186.137 259.965C187.081 259.934 188.251 259.904 189.8 259.904ZM149.846 262.501 149.846 262.501C149.846 263.386 149.997 265.219 150.242 266.532 150.3 266.93 150.526 267.141 150.847 267.141L153.206 267.141C153.603 267.141 153.753 266.96 153.733 266.561 153.639 265.677 153.563 264.67 153.563 264.09 153.563 259.841 154.28 256.666 159.736 256.666 160.849 256.666 161.736 256.727 162.585 256.85 162.679 258.894 162.679 259.841 162.679 261.493L162.679 264.178C162.679 268.822 165.491 270.961 170.531 270.961 172.154 270.961 173.852 270.778 174.928 270.564 175.267 270.472 175.437 270.349 175.437 269.952L175.437 261.064C175.437 260.178 175.778 259.994 176.852 259.994L178.249 259.994 178.249 256.085 175.835 256.085C173.022 256.085 171.568 256.756 171.568 259.934L171.568 267.263C170.966 267.356 170.645 267.387 170.058 267.387 167.757 267.387 166.548 266.501 166.548 263.812L166.548 258.771C166.548 257.309 166.529 255.41 166.435 253.975 166.435 253.612 166.209 253.398 165.755 253.306 164.058 253.031 161.887 252.849 159.66 252.849 152.658 252.849 149.846 256.177 149.846 262.501ZM154.772 250.097 154.772 250.097C154.772 250.495 155.093 250.739 155.469 250.739L157.507 250.739C157.885 250.739 158.206 250.495 158.206 250.097L158.206 247.926C158.206 247.593 157.848 247.318 157.507 247.318L155.469 247.318C155.093 247.318 154.772 247.593 154.772 247.926ZM160.453 250.097 160.453 250.097C160.453 250.495 160.773 250.739 161.112 250.739L163.189 250.739C163.528 250.739 163.868 250.495 163.868 250.097L163.868 247.926C163.868 247.593 163.528 247.318 163.189 247.318L161.112 247.318C160.773 247.318 160.453 247.593 160.453 247.926ZM136.371 278.72 136.371 278.72C136.371 279.055 136.617 279.33 136.994 279.33L139.729 279.33C140.108 279.33 140.352 279.055 140.352 278.72L140.352 256.727C140.352 256.392 140.108 256.085 139.729 256.085L136.994 256.085C136.617 256.085 136.371 256.392 136.371 256.727ZM123.612 259.626 123.612 259.626C123.612 259.841 124.16 259.994 124.613 259.994L127.311 259.994C128.275 259.994 128.502 260.024 128.502 261.004L128.502 278.692C128.502 279.055 128.765 279.33 129.105 279.33L131.879 279.33C132.219 279.33 132.464 279.055 132.464 278.692L132.464 260.942C132.464 259.841 132.427 258.405 132.313 257.309 132.219 256.913 132.104 256.635 131.615 256.419 130.728 256.177 128.218 256.085 126.576 256.085L124.613 256.085C124.16 256.085 123.612 256.207 123.612 256.451ZM112.421 259.626 112.421 259.626C112.421 259.841 112.968 259.994 113.44 259.994L116.271 259.994C116.97 259.994 118.046 260.089 118.046 261.035L118.046 269.862C118.046 270.2 118.291 270.444 118.667 270.444L121.31 270.444C121.649 270.444 121.896 270.2 121.896 269.862L121.896 260.514C122.141 260.089 123.33 259.994 123.878 259.994L124.613 259.994 124.613 256.085 124.255 256.085C122.689 256.085 120.971 256.268 119.913 257.123 118.781 256.329 117.007 256.085 115.706 256.085L113.44 256.085C112.968 256.085 112.421 256.207 112.421 256.451ZM115.291 275.668 115.291 275.668C115.291 276.062 115.63 276.37 116.026 276.37L118.14 276.37C118.536 276.37 118.894 276.062 118.894 275.668L118.894 273.285C118.894 272.917 118.497 272.614 118.14 272.614L116.026 272.614C115.63 272.614 115.291 272.917 115.291 273.285ZM120.952 275.668 120.952 275.668C120.952 276.062 121.31 276.37 121.688 276.37L123.82 276.37C124.217 276.37 124.519 276.062 124.519 275.668L124.519 273.285C124.519 272.917 124.217 272.614 123.82 272.614L121.688 272.614C121.31 272.614 120.952 272.917 120.952 273.285ZM94.927 256.085 94.927 256.085C94.435 256.085 93.9267 256.301 93.9267 256.451L93.9267 259.626C93.9267 259.841 94.4554 259.994 94.927 259.994L108.214 259.994 106.778 263.172C105.589 265.769 103.514 267.418 99.6249 267.418 99.3433 267.418 98.4358 267.387 97.9849 267.356 97.5496 267.324 97.3419 267.478 97.3419 267.848L97.3419 270.103C97.3419 270.411 97.5496 270.596 97.946 270.688 98.9652 270.9 99.8719 270.961 100.946 270.961 105.401 270.961 108.61 269.191 111.044 263.661 111.686 262.195 112.27 260.73 112.497 260.424 112.705 260.089 112.856 259.994 113.195 259.994L113.497 259.994 113.497 256.085ZM101.343 252.725 101.343 252.725C101.343 253.122 101.663 253.428 102.041 253.428L104.4 253.428C104.797 253.428 105.156 253.122 105.156 252.725L105.156 250.28C105.156 249.946 104.797 249.64 104.4 249.64L102.041 249.64C101.663 249.64 101.343 249.946 101.343 250.28ZM88.2255 278.72 88.2255 278.72C88.2255 279.055 88.5098 279.33 88.8693 279.33L91.5855 279.33C91.982 279.33 92.2086 279.055 92.2086 278.72L92.2086 261.553C92.2086 260.178 92.7742 259.994 93.9267 259.994L94.927 259.994 94.927 256.085 92.7742 256.085C90.0007 256.085 88.2255 256.817 88.2255 260.392ZM75.6191 251.747 75.6191 251.747C75.6191 252.055 75.8091 252.206 76.13 252.206L76.7713 252.206C79.0732 252.206 79.8842 252.42 79.8842 254.922L79.8842 269.862C79.8842 270.2 80.1294 270.444 80.5074 270.444L83.1684 270.444C83.4894 270.444 83.7345 270.2 83.7345 269.862L83.7345 255.38C83.7345 253.824 83.6586 252.39 83.0358 251.196 82.0923 249.458 80.5274 248.817 77.96 248.817 77.6393 248.817 76.5628 248.817 76.0545 248.908 75.7706 248.969 75.6191 249.151 75.6191 249.488ZM48.7254 262.501 48.7254 262.501C48.7254 263.415 48.9156 265.219 49.1611 266.532 49.2547 266.991 49.3484 267.141 49.8023 267.141L52.1608 267.141C52.5004 267.141 52.6698 266.96 52.6698 266.561 52.5759 265.677 52.5004 264.67 52.5004 264.09 52.5004 259.841 53.199 256.666 58.6725 256.666 59.7672 256.666 60.6538 256.727 61.5034 256.85 61.5975 258.894 61.5975 259.841 61.5975 261.493L61.5975 264.178C61.5975 268.854 64.3714 270.961 69.637 270.961 71.0708 270.961 72.8458 270.809 73.9772 270.564 74.2979 270.472 74.4879 270.349 74.4879 269.952L74.4879 256.727C74.4879 256.362 74.2427 256.085 73.8828 256.085L71.1852 256.085C70.8438 256.085 70.5988 256.362 70.5988 256.727L70.5988 267.263C69.882 267.356 69.5614 267.387 68.9954 267.387 66.6733 267.387 65.4843 266.501 65.4843 263.812L65.4843 258.771C65.4843 257.309 65.4472 255.41 65.3517 253.975 65.3517 253.612 65.1452 253.398 64.6735 253.306 62.9743 253.031 60.7663 252.849 58.577 252.849 51.5752 252.849 48.7254 256.177 48.7254 262.501ZM53.6895 250.097 53.6895 250.097C53.6895 250.495 53.9916 250.739 54.388 250.739L56.4076 250.739C56.804 250.739 57.1058 250.495 57.1058 250.097L57.1058 247.926C57.1058 247.593 56.7651 247.318 56.4076 247.318L54.388 247.318C53.9916 247.318 53.6895 247.593 53.6895 247.926ZM59.3326 250.097 59.3326 250.097C59.3326 250.495 59.6716 250.739 60.0311 250.739L62.1065 250.739C62.4471 250.739 62.7859 250.495 62.7859 250.097L62.7859 247.926C62.7859 247.593 62.4471 247.318 62.1065 247.318L60.0311 247.318C59.6716 247.318 59.3326 247.593 59.3326 247.926ZM139.674 239.959 139.674 239.959 120.554 239.959C119.97 239.959 118.347 239.406 118.347 236.903L118.347 178.066C118.347 175.32 120.554 175.32 120.554 175.32L139.674 175.32C158.98 175.32 172.324 187.384 172.324 207.483 172.324 227.95 158.98 239.959 139.674 239.959ZM138.541 183.231 138.541 183.231 127.066 183.231 127.066 232.076 138.541 232.076C153.3 232.076 162.546 223.278 162.546 207.483 162.546 192.029 153.3 183.231 138.541 183.231ZM238.227 189.308 238.227 189.308C237.491 190.623 236.322 190.073 235.584 189.308 232.847 186.833 226.338 182.742 217.561 182.742 203.37 182.742 193.555 194.134 193.555 208.093 193.555 221.412 202.822 232.502 217.013 232.502 224.62 232.502 230.054 229.569 233.264 227.401 235.584 225.996 236.112 225.996 237.491 227.401 238.227 228.778 239.358 230.669 239.358 230.669 239.358 230.669 240.699 232.502 239.358 233.451 236.112 235.528 228.658 240.751 217.013 240.751 198.198 240.751 184.307 226.607 184.307 208.093 184.307 189.308 197.594 174.587 217.013 174.587 229.583 174.587 237.491 180.541 240.699 183.231 242.095 184.115 241.511 184.941 240.964 186.039 240.699 186.496 239.358 188.149 238.227 189.308ZM286.749 209.47 286.749 209.47C291.975 211.58 295.223 216.772 295.223 223.278 295.223 233.998 287.314 239.959 276.161 239.959L256.477 239.959C254.099 239.959 253.552 237.45 253.552 236.903L253.552 178.066C253.552 177.242 253.552 175.32 256.477 175.32L276.671 175.32C288.127 175.32 297.392 181.334 297.392 193.888 297.392 200.643 293.505 207.208 286.749 209.47ZM262.818 232.076 262.818 232.076 276.161 232.076C282.143 232.076 285.956 227.95 285.956 222.177 285.956 216.772 282.143 212.74 276.161 212.74L262.818 212.74ZM277.236 183.231 277.236 183.231 262.818 183.231 262.818 205.314 277.236 205.314C284.051 205.314 288.127 200.643 288.127 194.134 288.127 187.384 284.051 183.231 277.236 183.231ZM84.1117 236.903 84.1117 236.903C83.1873 238.856 82.7723 239.959 79.9595 239.959L74.5433 239.959C72.0717 239.959 71.2218 238.856 70.4866 236.903 69.9001 235.344 47.2918 177.242 47.2918 177.242 47.2918 177.242 47.2918 175.32 49.461 175.32L55.2373 175.32C56.5197 175.32 57.1058 176.693 57.1058 176.693L63.3708 193.888 91.2283 193.888 97.4166 176.693C97.4166 176.693 97.9849 175.32 99.3225 175.32L104.815 175.32C107.174 175.32 107.174 177.242 107.174 177.242 107.174 177.242 84.7163 235.344 84.1117 236.903ZM66.1458 201.192 66.1458 201.192 72.619 219.213 77.2984 230.943 81.8472 219.213 88.1703 201.192ZM172.06 252.725 172.06 252.725C172.06 253.122 172.381 253.428 172.757 253.428L175.116 253.428C175.512 253.428 175.871 253.122 175.871 252.725L175.871 250.28C175.871 249.946 175.512 249.64 175.116 249.64L172.757 249.64C172.381 249.64 172.06 249.946 172.06 250.28Z" fill="#3A4A53" transform="matrix(1 0 0 -1.00049 651.332 458.367)"/></g></svg>