<?xml version="1.0" encoding="UTF-8"?>
<svg xmlns="http://www.w3.org/2000/svg" xmlns:xlink="http://www.w3.org/1999/xlink" width="680.32pt" height="157.02pt" viewBox="0 0 680.32 157.02" version="1.1">
<defs>
<clipPath id="clip1">
  <path d="M 0 3 L 154 3 L 154 157.019531 L 0 157.019531 Z M 0 3 "/>
</clipPath>
<clipPath id="clip2">
  <path d="M 636 94 L 680.320313 94 L 680.320313 156 L 636 156 Z M 636 94 "/>
</clipPath>
<clipPath id="clip3">
  <path d="M 211 0 L 680.320313 0 L 680.320313 95 L 211 95 Z M 211 0 "/>
</clipPath>
</defs>
<g id="surface1">
<g clip-path="url(#clip1)" clip-rule="nonzero">
<path style=" stroke:none;fill-rule:nonzero;fill:rgb(95.298767%,50.59967%,19.198608%);fill-opacity:1;" d="M 46.316406 50.285156 L 106.75 50.285156 L 106.75 110.699219 L 46.316406 110.699219 Z M 0 80.496094 C 0 38.230469 34.253906 3.9375 76.542969 3.9375 C 118.824219 3.9375 153.082031 38.230469 153.082031 80.496094 C 153.082031 122.761719 118.824219 157.019531 76.542969 157.019531 C 34.253906 157.019531 0 122.761719 0 80.496094 M 13.902344 80.496094 C 13.902344 115.078125 41.941406 143.109375 76.542969 143.109375 C 111.140625 143.109375 139.1875 115.078125 139.1875 80.496094 C 139.1875 45.898438 111.140625 17.851563 76.542969 17.851563 C 41.941406 17.851563 13.902344 45.898438 13.902344 80.496094 "/>
</g>
<path style=" stroke:none;fill-rule:nonzero;fill:rgb(26.699829%,30.198669%,24.699402%);fill-opacity:1;" d="M 230.148438 135.273438 L 235.996094 133.824219 L 235.996094 144.207031 C 235.773438 145.042969 235.308594 145.859375 234.820313 146.574219 C 234.25 147.390625 233.5 148.214844 232.628906 149.039063 C 231.757813 149.800781 230.757813 150.453125 229.628906 150.96875 C 228.558594 151.519531 227.445313 151.785156 226.324219 151.785156 C 224.464844 151.785156 222.9375 151.082031 221.796875 149.6875 C 220.722656 148.261719 220.175781 146.542969 220.175781 144.519531 C 220.175781 143.371094 220.519531 142.289063 221.171875 141.265625 C 221.890625 140.261719 222.730469 139.378906 223.742188 138.609375 C 224.746094 137.800781 225.789063 137.09375 226.894531 136.503906 C 228.066406 135.917969 229.152344 135.507813 230.148438 135.273438 M 236.4375 150.144531 L 236.4375 155.777344 L 249.507813 155.777344 L 249.507813 150.738281 L 244.835938 150.738281 L 244.835938 125.996094 C 244.835938 124.082031 244.449219 122.265625 243.65625 120.5625 C 242.921875 118.808594 241.871094 117.265625 240.507813 115.96875 C 239.210938 114.679688 237.628906 113.640625 235.753906 112.90625 C 233.925781 112.167969 231.925781 111.8125 229.699219 111.8125 C 227.589844 111.8125 225.628906 112.003906 223.867188 112.410156 C 222.15625 112.75 220.601563 113.152344 219.210938 113.609375 C 217.90625 114.066406 216.8125 114.554688 215.964844 115.066406 L 214.203125 116.023438 L 214.203125 123.847656 L 221.730469 123.847656 L 221.730469 119.066406 C 222.289063 118.515625 223.410156 118.011719 224.058594 117.734375 C 225.230469 117.140625 226.503906 116.839844 227.878906 116.839844 C 230.535156 116.839844 232.585938 117.808594 233.96875 119.796875 C 235.328125 121.753906 235.996094 124.050781 235.996094 126.695313 L 235.996094 129.496094 L 228.28125 131.273438 C 226.5625 131.675781 224.664063 132.292969 222.601563 133.15625 C 220.613281 133.957031 218.742188 134.960938 217.035156 136.164063 C 215.328125 137.304688 213.898438 138.640625 212.765625 140.171875 C 211.644531 141.628906 211.085938 143.207031 211.085938 144.867188 C 211.085938 148.316406 212.246094 151.171875 214.550781 153.414063 C 216.921875 155.675781 220.226563 156.8125 224.5 156.8125 C 227.289063 156.8125 229.90625 155.613281 232.128906 154.015625 C 233.164063 153.265625 234.019531 152.523438 234.703125 151.792969 C 235.394531 150.980469 235.796875 150.410156 235.957031 150.039063 L 236.4375 150.144531 "/>
<path style=" stroke:none;fill-rule:nonzero;fill:rgb(26.699829%,30.198669%,24.699402%);fill-opacity:1;" d="M 255.914063 150.738281 L 255.914063 155.777344 L 274.523438 155.777344 L 274.523438 150.738281 L 269.847656 150.738281 L 269.847656 94.929688 L 255.914063 94.929688 L 255.914063 99.960938 L 260.578125 99.960938 L 260.578125 150.738281 "/>
<path style=" stroke:none;fill-rule:nonzero;fill:rgb(26.699829%,30.198669%,24.699402%);fill-opacity:1;" d="M 328.585938 150.738281 L 328.585938 155.777344 L 346.683594 155.777344 L 346.683594 150.738281 L 342.015625 150.738281 L 342.015625 126.4375 C 342.015625 124.914063 341.757813 123.28125 341.238281 121.574219 C 340.78125 119.824219 339.992188 118.234375 338.855469 116.820313 C 337.792969 115.347656 336.335938 114.15625 334.523438 113.253906 C 332.785156 112.300781 330.613281 111.8125 327.980469 111.8125 C 326.585938 111.8125 325.277344 112.097656 324.097656 112.648438 C 322.914063 113.164063 321.867188 113.824219 320.960938 114.597656 C 320.050781 115.34375 319.289063 116.117188 318.667969 116.90625 C 318.089844 117.648438 317.730469 118.203125 317.566406 118.570313 L 317.097656 118.46875 L 317.097656 94.929688 L 303.140625 94.929688 L 303.140625 99.960938 L 307.816406 99.960938 L 307.816406 150.738281 L 303.140625 150.738281 L 303.140625 155.777344 L 321.246094 155.777344 L 321.246094 150.738281 L 317.097656 150.738281 L 317.097656 124.859375 C 317.152344 124.402344 317.472656 123.738281 317.988281 122.925781 C 318.523438 122.050781 319.160156 121.203125 319.929688 120.371094 C 320.753906 119.554688 321.660156 118.863281 322.648438 118.261719 C 323.683594 117.601563 324.757813 117.265625 325.898438 117.265625 C 327.105469 117.265625 328.128906 117.542969 328.976563 118.085938 C 329.871094 118.628906 330.59375 119.308594 331.144531 120.152344 C 331.667969 120.9375 332.0625 121.820313 332.296875 122.824219 C 332.582031 123.769531 332.730469 124.679688 332.730469 125.578125 L 332.730469 150.738281 L 328.585938 150.738281 "/>
<path style=" stroke:none;fill-rule:nonzero;fill:rgb(26.699829%,30.198669%,24.699402%);fill-opacity:1;" d="M 353.0625 150.738281 L 353.0625 155.777344 L 371.691406 155.777344 L 371.691406 150.738281 L 367.019531 150.738281 L 367.019531 112.847656 L 353.0625 112.847656 L 353.0625 117.878906 L 357.742188 117.878906 L 357.742188 150.738281 Z M 366.492188 104.878906 C 367.710938 103.773438 368.3125 102.421875 368.3125 100.828125 C 368.3125 99.230469 367.710938 97.878906 366.492188 96.773438 C 365.324219 95.648438 363.941406 95.113281 362.324219 95.113281 C 359.136719 95.113281 356.445313 97.5625 356.445313 100.828125 C 356.445313 104.082031 359.136719 106.539063 362.324219 106.539063 C 363.941406 106.539063 365.324219 105.992188 366.492188 104.878906 "/>
<path style=" stroke:none;fill-rule:nonzero;fill:rgb(26.699829%,30.198669%,24.699402%);fill-opacity:1;" d="M 378.074219 150.738281 L 378.074219 155.777344 L 396.691406 155.777344 L 396.691406 150.738281 L 392.015625 150.738281 L 392.015625 94.929688 L 378.074219 94.929688 L 378.074219 99.960938 L 382.75 99.960938 L 382.75 150.738281 "/>
<path style=" stroke:none;fill-rule:nonzero;fill:rgb(26.699829%,30.198669%,24.699402%);fill-opacity:1;" d="M 421.722656 135.273438 L 427.574219 133.824219 L 427.574219 144.207031 C 427.347656 145.042969 426.878906 145.859375 426.40625 146.574219 C 425.816406 147.390625 425.070313 148.214844 424.203125 149.039063 C 423.320313 149.800781 422.3125 150.453125 421.195313 150.96875 C 420.128906 151.519531 419.023438 151.785156 417.882813 151.785156 C 416.023438 151.785156 414.503906 151.082031 413.363281 149.6875 C 412.289063 148.261719 411.746094 146.542969 411.746094 144.519531 C 411.746094 143.371094 412.078125 142.289063 412.738281 141.265625 C 413.453125 140.261719 414.300781 139.378906 415.304688 138.609375 C 416.300781 137.800781 417.351563 137.09375 418.460938 136.503906 C 419.621094 135.917969 420.714844 135.507813 421.722656 135.273438 M 428.003906 150.144531 L 428.003906 155.777344 L 441.078125 155.777344 L 441.078125 150.738281 L 436.40625 150.738281 L 436.40625 125.996094 C 436.40625 124.082031 436.015625 122.265625 435.214844 120.5625 C 434.484375 118.808594 433.429688 117.265625 432.078125 115.96875 C 430.757813 114.679688 429.175781 113.640625 427.304688 112.90625 C 425.507813 112.167969 423.476563 111.8125 421.265625 111.8125 C 419.144531 111.8125 417.203125 112.003906 415.425781 112.410156 C 413.703125 112.75 412.164063 113.152344 410.789063 113.609375 C 409.460938 114.066406 408.390625 114.554688 407.554688 115.066406 L 405.765625 116.023438 L 405.765625 123.847656 L 413.300781 123.847656 L 413.300781 119.066406 C 413.84375 118.515625 414.980469 118.011719 415.617188 117.734375 C 416.8125 117.140625 418.085938 116.839844 419.449219 116.839844 C 422.109375 116.839844 424.148438 117.808594 425.535156 119.796875 C 426.886719 121.753906 427.574219 124.050781 427.574219 126.695313 L 427.574219 129.496094 L 419.839844 131.273438 C 418.117188 131.675781 416.230469 132.292969 414.167969 133.15625 C 412.179688 133.957031 410.308594 134.960938 408.601563 136.164063 C 406.878906 137.304688 405.464844 138.640625 404.328125 140.171875 C 403.210938 141.628906 402.648438 143.207031 402.648438 144.867188 C 402.648438 148.316406 403.816406 151.171875 406.113281 153.414063 C 408.480469 155.675781 411.789063 156.8125 416.066406 156.8125 C 418.863281 156.8125 421.488281 155.613281 423.71875 154.015625 C 424.742188 153.265625 425.570313 152.523438 426.261719 151.792969 C 426.953125 150.980469 427.375 150.410156 427.527344 150.039063 L 428.003906 150.144531 "/>
<path style=" stroke:none;fill-rule:nonzero;fill:rgb(26.699829%,30.198669%,24.699402%);fill-opacity:1;" d="M 447.464844 150.738281 L 447.464844 155.777344 L 466.089844 155.777344 L 466.089844 150.738281 L 461.40625 150.738281 L 461.40625 94.929688 L 447.464844 94.929688 L 447.464844 99.960938 L 452.136719 99.960938 L 452.136719 150.738281 "/>
<path style=" stroke:none;fill-rule:nonzero;fill:rgb(26.699829%,30.198669%,24.699402%);fill-opacity:1;" d="M 524.992188 127.6875 C 525.394531 129.550781 525.609375 131.378906 525.609375 133.183594 C 525.609375 135.164063 525.378906 137.246094 524.898438 139.460938 C 524.15625 143.363281 522.585938 147.324219 519.550781 149.984375 C 518.167969 151.183594 516.507813 151.785156 514.621094 151.785156 C 513.425781 151.785156 512.199219 151.628906 511.042969 151.519531 C 510.46875 151.40625 509.898438 151.304688 509.386719 151.25 C 508.9375 151.152344 508.539063 151.027344 508.128906 150.828125 L 508.128906 124.859375 C 508.34375 123.648438 509.933594 121.460938 510.703125 120.558594 C 512.121094 118.9375 514.074219 117.265625 516.339844 117.265625 C 517.800781 117.265625 519.101563 117.789063 520.238281 118.800781 C 521.410156 119.757813 522.390625 120.988281 523.152344 122.511719 C 523.96875 124.039063 524.589844 125.753906 524.992188 127.6875 M 533.777344 142.363281 C 534.691406 139.460938 535.121094 136.390625 535.121094 133.183594 C 535.121094 128.378906 533.820313 123.179688 531.1875 119.117188 C 529.890625 117.035156 528.148438 115.289063 525.988281 113.917969 C 523.855469 112.523438 521.242188 111.8125 518.167969 111.8125 C 517.007813 111.8125 515.847656 112.109375 514.742188 112.726563 C 513.605469 113.300781 512.601563 113.972656 511.753906 114.757813 C 510.902344 115.503906 510.203125 116.277344 509.617188 117.078125 C 509.042969 117.808594 508.71875 118.320313 508.628906 118.570313 L 508.128906 118.46875 L 508.128906 94.929688 L 494.1875 94.929688 L 494.1875 99.960938 L 498.867188 99.960938 L 498.867188 154.535156 C 499.855469 154.808594 500.980469 155.070313 502.292969 155.347656 L 506.710938 156.039063 C 508.191406 156.269531 509.636719 156.441406 511.015625 156.546875 C 512.382813 156.726563 513.605469 156.8125 514.621094 156.8125 C 517.867188 156.8125 520.757813 156.195313 523.25 154.941406 C 525.8125 153.6875 527.972656 151.996094 529.746094 149.890625 C 531.523438 147.734375 532.847656 145.210938 533.777344 142.363281 "/>
<path style=" stroke:none;fill-rule:nonzero;fill:rgb(26.699829%,30.198669%,24.699402%);fill-opacity:1;" d="M 560.839844 135.273438 L 566.710938 133.824219 L 566.710938 144.207031 C 566.476563 145.042969 566.007813 145.859375 565.527344 146.574219 C 564.945313 147.390625 564.210938 148.214844 563.328125 149.039063 C 562.445313 149.800781 561.445313 150.453125 560.328125 150.96875 C 559.253906 151.519531 558.148438 151.785156 557.011719 151.785156 C 555.152344 151.785156 553.640625 151.082031 552.480469 149.6875 C 551.417969 148.261719 550.875 146.542969 550.875 144.519531 C 550.875 143.371094 551.199219 142.289063 551.871094 141.265625 C 552.578125 140.261719 553.433594 139.378906 554.4375 138.609375 C 555.425781 137.800781 556.480469 137.09375 557.585938 136.503906 C 558.742188 135.917969 559.851563 135.507813 560.839844 135.273438 M 567.132813 150.144531 L 567.132813 155.777344 L 580.199219 155.777344 L 580.199219 150.738281 L 575.53125 150.738281 L 575.53125 125.996094 C 575.53125 124.082031 575.140625 122.265625 574.34375 120.5625 C 573.613281 118.808594 572.558594 117.265625 571.195313 115.96875 C 569.90625 114.679688 568.304688 113.640625 566.441406 112.90625 C 564.613281 112.167969 562.613281 111.8125 560.402344 111.8125 C 558.265625 111.8125 556.320313 112.003906 554.5625 112.410156 C 552.832031 112.75 551.289063 113.152344 549.90625 113.609375 C 548.589844 114.066406 547.515625 114.554688 546.675781 115.066406 L 544.898438 116.023438 L 544.898438 123.847656 L 552.441406 123.847656 L 552.441406 119.066406 C 552.976563 118.515625 554.117188 118.011719 554.734375 117.734375 C 555.925781 117.140625 557.203125 116.839844 558.574219 116.839844 C 561.242188 116.839844 563.285156 117.808594 564.679688 119.796875 C 566.027344 121.753906 566.710938 124.050781 566.710938 126.695313 L 566.710938 129.496094 L 558.976563 131.273438 C 557.246094 131.675781 555.363281 132.292969 553.300781 133.15625 C 551.300781 133.957031 549.460938 134.960938 547.726563 136.164063 C 546.007813 137.304688 544.59375 138.640625 543.453125 140.171875 C 542.34375 141.628906 541.773438 143.207031 541.773438 144.867188 C 541.773438 148.316406 542.941406 151.171875 545.25 153.414063 C 547.609375 155.675781 550.917969 156.8125 555.195313 156.8125 C 557.984375 156.8125 560.613281 155.613281 562.839844 154.015625 C 563.871094 153.265625 564.710938 152.523438 565.382813 151.792969 C 566.078125 150.980469 566.484375 150.410156 566.644531 150.039063 L 567.132813 150.144531 "/>
<path style=" stroke:none;fill-rule:nonzero;fill:rgb(26.699829%,30.198669%,24.699402%);fill-opacity:1;" d="M 600.546875 124.820313 C 600.6875 124.265625 600.988281 123.5625 601.445313 122.765625 C 601.980469 121.933594 602.628906 121.105469 603.390625 120.304688 C 604.980469 118.703125 607.023438 117.265625 609.367188 117.265625 C 610.5625 117.265625 611.570313 117.542969 612.433594 118.085938 C 613.347656 118.570313 614.050781 119.222656 614.601563 120.070313 C 615.128906 120.851563 615.507813 121.726563 615.75 122.734375 C 616.054688 123.683594 616.195313 124.621094 616.195313 125.570313 L 616.195313 150.738281 L 612.039063 150.738281 L 612.039063 155.777344 L 630.132813 155.777344 L 630.132813 150.738281 L 625.460938 150.738281 L 625.460938 126.695313 C 625.460938 124.988281 625.214844 123.257813 624.691406 121.484375 C 623.640625 117.726563 621.328125 114.917969 617.8125 113.164063 C 616.074219 112.269531 613.941406 111.8125 611.441406 111.8125 C 608.699219 111.8125 606.214844 112.960938 604.074219 114.609375 C 603.152344 115.347656 602.402344 116.117188 601.777344 116.90625 C 601.140625 117.644531 600.757813 118.203125 600.597656 118.570313 L 600.117188 118.46875 L 600.117188 112.847656 L 586.601563 112.847656 L 586.601563 117.878906 L 591.273438 117.878906 L 591.273438 150.738281 L 586.601563 150.738281 L 586.601563 155.777344 L 604.707031 155.777344 L 604.707031 150.738281 L 600.546875 150.738281 L 600.546875 124.820313 "/>
<g clip-path="url(#clip2)" clip-rule="nonzero">
<path style=" stroke:none;fill-rule:nonzero;fill:rgb(26.699829%,30.198669%,24.699402%);fill-opacity:1;" d="M 636.527344 150.738281 L 636.527344 155.777344 L 654.027344 155.777344 L 654.027344 150.738281 L 650.46875 150.738281 L 650.46875 94.929688 L 636.527344 94.929688 L 636.527344 99.960938 L 641.210938 99.960938 L 641.210938 150.738281 Z M 660.144531 150.738281 L 660.144531 155.777344 L 680.316406 155.777344 L 680.316406 150.738281 L 675.796875 150.738281 L 659.730469 130.664063 L 672.507813 117.878906 L 677.21875 117.878906 L 677.21875 112.847656 L 660.488281 112.847656 L 660.488281 117.878906 L 665.40625 117.878906 L 651.136719 133.03125 L 664.289063 150.738281 "/>
</g>
<g clip-path="url(#clip3)" clip-rule="nonzero">
<path style=" stroke:none;fill-rule:nonzero;fill:rgb(26.699829%,30.198669%,24.699402%);fill-opacity:1;" d="M 339.308594 35.242188 L 334.644531 35.242188 L 334.644531 30.203125 L 348.585938 30.203125 L 348.585938 41.828125 C 352.160156 42.277344 355.742188 43.375 358.210938 44.8125 C 360.71875 46.226563 362.835938 48.023438 364.53125 50.191406 C 366.246094 52.296875 367.585938 54.605469 368.472656 57.136719 C 369.320313 59.601563 369.757813 61.863281 369.757813 63.972656 C 369.757813 65.503906 369.503906 66.828125 369.078125 68.109375 L 386.855469 68.109375 L 386.855469 17.335938 L 382.183594 17.335938 L 382.183594 12.300781 L 396.140625 12.300781 L 396.140625 68.109375 L 400.804688 68.109375 L 400.804688 73.144531 L 262.117188 73.144531 L 262.117188 68.109375 L 291.773438 68.109375 L 291.773438 17.335938 L 287.113281 17.335938 L 287.113281 12.300781 L 301.054688 12.300781 L 301.054688 68.109375 L 318.835938 68.109375 C 318.402344 66.828125 318.152344 65.503906 318.152344 63.972656 C 318.152344 61.863281 318.589844 59.601563 319.429688 57.136719 C 320.324219 54.605469 321.664063 52.296875 323.375 50.191406 C 325.097656 48.023438 327.203125 46.226563 329.703125 44.8125 C 332.15625 43.386719 335.753906 42.285156 339.308594 41.828125 Z M 348.585938 47.152344 L 348.585938 68.109375 L 359.390625 68.109375 C 360.753906 65.535156 360.617188 61.609375 359.070313 57.113281 C 357.050781 51.253906 352.96875 47.652344 348.585938 47.152344 M 339.308594 68.109375 L 339.308594 47.152344 C 334.921875 47.660156 330.875 51.265625 328.835938 57.113281 C 327.292969 61.609375 327.160156 65.535156 328.53125 68.109375 Z M 220.0625 70.980469 C 220.0625 80.964844 224.945313 89.566406 230.992188 89.566406 C 237.046875 89.566406 241.945313 83.28125 241.945313 71.222656 L 241.914063 17.335938 L 237.246094 17.335938 L 237.246094 12.300781 L 251.09375 12.300781 L 251.09375 71.523438 C 251.09375 87.515625 242.136719 94.929688 231.089844 94.929688 C 220.039063 94.929688 211.074219 84.207031 211.074219 70.980469 Z M 262.117188 57.96875 L 266.785156 57.96875 L 266.785156 17.335938 L 262.117188 17.335938 L 262.117188 12.300781 L 276.050781 12.300781 L 276.050781 57.96875 L 280.746094 57.96875 L 280.746094 63.003906 L 262.117188 63.003906 Z M 407.179688 68.109375 L 411.863281 68.109375 L 411.863281 17.335938 L 407.179688 17.335938 L 407.179688 12.300781 L 421.117188 12.300781 L 421.117188 68.109375 L 425.796875 68.109375 L 425.796875 73.144531 L 407.179688 73.144531 Z M 623.871094 54.839844 C 623.871094 60.070313 621.664063 64.777344 618.175781 68.109375 L 647.460938 68.109375 C 644.1875 64.792969 642.109375 60.558594 641.152344 55.902344 C 640.585938 52.960938 640.324219 50.320313 640.324219 47.921875 C 640.324219 45.671875 640.695313 43.207031 641.507813 40.53125 C 642.355469 37.835938 643.601563 35.378906 645.257813 33.125 C 646.953125 30.808594 649.054688 28.894531 651.539063 27.371094 C 654.019531 25.851563 656.921875 25.109375 660.277344 25.109375 C 663.621094 25.109375 666.535156 25.832031 669.011719 27.289063 C 671.554688 28.679688 673.660156 30.507813 675.289063 32.757813 C 676.996094 34.945313 678.246094 37.410156 679.039063 40.152344 C 679.902344 42.855469 680.316406 45.433594 680.316406 47.921875 C 680.316406 50.117188 680.011719 52.691406 679.414063 55.636719 C 678.808594 58.484375 677.710938 61.230469 676.117188 63.859375 C 674.597656 66.460938 672.539063 68.683594 669.929688 70.511719 C 667.386719 72.257813 664.175781 73.144531 660.277344 73.144531 L 544.242188 73.144531 L 544.242188 80.828125 C 544.242188 82.476563 544.019531 84.132813 543.621094 85.78125 C 543.230469 87.488281 542.550781 89.023438 541.582031 90.371094 C 539.339844 93.734375 536.097656 94.929688 532.132813 94.929688 C 530.140625 94.929688 528.980469 94.707031 527.675781 94.246094 C 526.601563 93.917969 525.820313 93.601563 525.351563 93.371094 L 528.269531 88.484375 C 528.53125 88.707031 528.914063 88.960938 529.375 89.269531 C 530.109375 89.683594 530.894531 89.902344 531.757813 89.902344 C 532.871094 89.902344 533.691406 89.195313 534.234375 87.929688 C 534.765625 86.75 535.039063 85.414063 535.039063 83.933594 L 535.039063 35.242188 L 529.84375 35.242188 L 529.84375 30.203125 L 544.242188 30.203125 L 544.242188 68.109375 L 563.351563 68.109375 L 563.351563 35.242188 L 558.664063 35.242188 L 558.664063 30.203125 L 572.601563 30.203125 L 572.601563 36.527344 L 605.539063 36.507813 C 615.65625 36.507813 623.871094 44.714844 623.871094 54.839844 M 572.601563 68.109375 L 600.421875 68.109375 C 607.59375 68.109375 613.398438 61.839844 613.398438 55.050781 C 613.398438 48.222656 607.574219 42.765625 600.421875 42.765625 L 572.601563 42.765625 Z M 669.746094 42.542969 C 669.503906 40.546875 669.011719 38.679688 668.257813 36.941406 C 667.492188 35.125 666.480469 33.613281 665.152344 32.425781 C 663.878906 31.136719 662.246094 30.507813 660.277344 30.507813 C 658.367188 30.507813 656.773438 31.117188 655.488281 32.324219 C 652.777344 34.910156 651.457031 38.738281 650.882813 42.34375 C 650.585938 44.332031 650.425781 46.164063 650.425781 47.832031 C 650.425781 49.617188 650.546875 51.660156 650.796875 53.957031 C 651.097656 56.242188 651.597656 58.417969 652.277344 60.464844 C 653.03125 62.464844 654.03125 64.1875 655.28125 65.625 C 656.570313 67.046875 658.234375 67.730469 660.277344 67.730469 C 662.300781 67.730469 663.976563 67.078125 665.238281 65.726563 C 666.566406 64.398438 667.574219 62.738281 668.257813 60.75 C 669.011719 58.75 669.503906 56.613281 669.746094 54.328125 C 670.054688 51.980469 670.214844 49.816406 670.214844 47.832031 C 670.214844 46.277344 670.054688 44.519531 669.746094 42.542969 M 508.578125 56.332031 L 508.09375 56.242188 C 507.929688 56.667969 507.546875 57.273438 506.917969 58.082031 C 505.578125 59.835938 503.820313 61.261719 501.824219 62.15625 C 500.75 62.722656 499.632813 63.003906 498.464844 63.003906 C 495.496094 63.003906 492.976563 62.261719 490.824219 60.792969 C 488.714844 59.316406 486.980469 57.445313 485.613281 55.167969 C 484.246094 52.882813 483.226563 50.339844 482.535156 47.535156 C 481.898438 44.726563 481.585938 42.003906 481.585938 39.378906 C 481.585938 37.277344 482.003906 34.992188 482.871094 32.535156 C 483.789063 30.03125 485.085938 27.714844 486.804688 25.597656 C 488.511719 23.433594 490.628906 21.648438 493.136719 20.214844 C 495.6875 18.738281 498.589844 18 501.847656 18 C 503.046875 18 504.46875 18.109375 506.132813 18.335938 C 507.800781 18.515625 509.449219 18.738281 511.070313 19.027344 C 512.660156 19.257813 514.09375 19.523438 515.375 19.8125 L 517.765625 20.367188 L 517.765625 73.144531 L 452.535156 73.144531 L 452.535156 68.109375 L 457.21875 68.109375 L 457.21875 35.242188 L 452.535156 35.242188 L 452.535156 30.203125 L 466.488281 30.203125 L 466.488281 68.109375 L 508.578125 68.109375 Z M 508.578125 49.894531 L 508.578125 24.035156 C 508.128906 23.925781 507.703125 23.871094 507.246094 23.808594 L 505.441406 23.464844 C 504.789063 23.355469 504.152344 23.261719 503.519531 23.210938 C 502.867188 23.089844 502.3125 23.027344 501.847656 23.027344 C 500.101563 23.027344 498.539063 23.628906 497.164063 24.824219 C 495.878906 25.996094 494.765625 27.4375 493.832031 29.121094 C 492.96875 30.765625 492.265625 32.511719 491.734375 34.371094 C 491.265625 36.230469 491.035156 37.898438 491.035156 39.378906 C 491.035156 41.003906 491.210938 42.867188 491.554688 44.949219 C 492.183594 48.585938 493.582031 52.722656 496.039063 55.5625 C 497.226563 56.859375 498.644531 57.539063 500.28125 57.539063 C 501.265625 57.539063 502.207031 57.230469 503.101563 56.636719 C 504.035156 56.0625 504.898438 55.371094 505.664063 54.605469 C 506.683594 53.5 508.238281 51.398438 508.578125 49.894531 M 502.386719 0.00390625 C 505.671875 0.00390625 508.316406 2.585938 508.316406 5.75 C 508.316406 8.90625 505.671875 11.476563 502.386719 11.476563 C 499.09375 11.476563 496.453125 8.90625 496.453125 5.75 C 496.453125 2.585938 499.09375 0.00390625 502.386719 0.00390625 "/>
</g>
</g>
</svg>
