<svg width="576" height="576" viewBox="0 0 576 576" fill="none" xmlns="http://www.w3.org/2000/svg">
<g clip-path="url(#clip0_950_12517)">
<path d="M727.414 -89.0703H-19.7761V511.109H727.414V-89.0703Z" fill="url(#paint0_linear_950_12517)"/>
<path opacity="0.5" d="M381.408 298.366L374.702 304.015L383.833 310.536L466.135 313.458L477.625 319.609L543.13 320.808L546.691 312.804L505.911 304.037L505.823 296.032L474.348 291.125L462.706 280.177L444.577 281.289L432.432 270.297L402.442 272.696L399.341 288.464L381.015 289.686L381.408 298.366Z" fill="white"/>
<path opacity="0.5" d="M31.5514 150.572L111.648 148.434L185.869 153.756L193.601 147.104L173.113 141.804L167.521 134.105L131.066 125.599L133.993 113.909L114.029 103.812L96.2054 107.803L90.3516 114.433L70.9336 115.502L65.8661 131.706L41.1185 133.822L37.1431 140.474L6.54171 138.642L0.141846 144.465L10.2549 151.095L31.5514 150.572Z" fill="white"/>
<path opacity="0.3" d="M424.037 452.681L384.895 449.977L338.72 413.511L288.285 453.161H246.129L210.373 444.11L142.596 451.067L67.3698 392.05L6.47276 454.251L-6.65461 438.941H-19.782V575.688H727.408V438.941H699.013L651.942 398.244L631.104 417.654L609.065 417.807L583.662 444.851H543.297L497.231 413.663L460.077 447.098H442.275L424.037 452.681Z" fill="#76B963"/>
<path opacity="0.3" d="M715.284 444.939L699.011 438.941L651.941 398.244L663.888 422.823L659.454 429.628L670.681 445.222L662.119 446.989L622.257 418.963L609.064 417.785L624.615 442.867L635.253 449.693L622.191 469.889L581.564 466.465L575.666 458.831L547.533 454.382L543.274 444.851L497.208 413.663L499.48 427.905L503.564 428.952L510.051 446.683L500.899 445.309L460.862 467.664L442.296 467.359L437.272 472.375L428.6 474.469L424.472 468.842L411.541 461.449L384.872 449.977L338.697 413.489L335.442 439.988L344.485 446.88L345.752 450.544L343.087 465.505L346.385 465.592L349.705 454.099L357.809 463.651L353.549 450.914L347.302 443.106L347.128 438.635L357.306 449.126L379.935 463.739L376.55 468.319L354.554 469.038L351.649 473.291L341.776 475.341L325.045 464.197L247.351 463.542L210.328 444.066L173.807 457.37L136.303 453.706L142.55 451.002L67.3247 391.984L67.1062 404.002L73.1129 411.482L65.2496 432.049L83.5755 458.068L62.1698 454.208L45.8316 463.368L33.5342 447.687L13.0459 455.822L19.5768 463.957L4.92049 466.726L3.02019 451.678L-6.72159 438.941H-15.7644L-12.0949 454.578L-4.79944 456.563L1.55674 477.217L9.37637 476.977L5.68498 468.34L29.0347 468.122L47.7974 478.504L59.1992 478.373L81.981 482.713L80.4957 472.615L90.9146 473.248L114.963 485.854L141.065 484.131L101.77 464L100.787 451.7L81.85 424.503L87.6601 425.004L106.292 443.826C106.292 443.826 101.268 429.41 100.897 429.301C101.181 429.301 104.151 429.89 104.151 429.89L113.456 447.054L129.816 461.667L193.793 457.937L210.568 482.648L226.076 485.832L214.5 462.037L217.973 461.819L232.957 472.899L305.43 465.658L327.863 483.084L370.718 484.894L383.736 473.378L396.47 471.612L401.625 479.093L443.366 476.737L466.17 484.153L493.538 462.146L500.244 467.446L507.998 467.948L524.205 484.48H530.278L519.902 463.673L523.965 460.598L520.47 451.22H524.031L531.086 464.197L539.714 473.16L543.339 473.204L536.153 460.293L540.194 460.663L552.317 476.541L575.972 479.812L582.7 487.707H595.98L585.277 470.87L613.104 477.108L641.325 465.592L646.545 452.986L649.079 454.884L648.227 470.412L681.865 481.753L692.742 473.4L665.832 452.158L709.845 454.099L715.153 444.96L715.284 444.939Z" fill="white"/>
<path d="M16.1698 531.741L24.3826 530.781L23.7928 527.968L23.6399 524.086L24.5136 523.584L24.7321 527.663L25.431 530.781H31.1538L31.8964 524.042L31.9401 518.11L29.1879 514.272L35.7626 514.01L32.9449 517.717V517.739L32.9886 524.413L32.3333 530.781H38.2089L37.8376 527.946L36.5707 524.173L37.641 524.042L38.9297 527.554L39.0826 528.644L39.5632 524.304L41.1358 519.419L39.7379 515.297L47.4046 519.331L42.0095 520.575L40.6553 524.675L40.0219 530.781H50.1349L50.965 525.569L52.6468 519.68L50.3315 516.954L57.2993 517.368L53.6953 520.007L52.1445 525.7L51.38 530.781H59.9641L59.6583 528.164L60.1825 525.787L61.4057 525.918L60.9252 528.448L61.2528 530.781L68.7885 534.533V536.408L13.1555 535.1L16.1698 531.741Z" fill="#76B963"/>
<path d="M418.904 507.511L419.516 503.215L424.43 500.99L427.663 504.545L425.85 507.969L425.064 507.686L426.265 504.676L424.278 502.604L420.63 503.825L420.062 507.49L423.95 515.734L425.195 520.837L424.278 526.682L422.377 526.813L423.797 521.077L422.792 517.566L416.48 514.6L416.698 513.945L422.508 516.17L418.904 507.511Z" fill="#76B963"/>
<path d="M18.3114 528.404L20.6486 530.367L52.8227 530.978L56.5796 529.277L85.0404 527.139L124.947 528.012L144.736 531.545L173.066 529.8L179.204 527.466L247.746 528.055L250.389 526.703L272.013 521.97L295.93 523.323H315.829L317.62 524.806L350.93 524.326L351.651 523.41L401.43 526.616L427.837 525.373L492.36 523.802L518.528 527.924L548.408 527.554L556.184 523.214L606.226 521.97L614.329 523.344L634.621 523.17L640.955 520.749H645.564L656.616 524.348L691.63 524.391L692.132 523.628L707.444 525.547L727.408 527.052V575.688H-19.782V530.694L18.3114 528.404Z" fill="#76B963"/>
<path d="M429.062 524.261L429.303 522.887L428.997 521.077L427.948 518.678L428.844 518.569L429.892 520.837L430.023 521.513L430.417 518.743L431.705 515.624L430.548 512.985L436.86 515.581L432.426 516.366L431.312 518.983L430.395 524.305H432.71L434.479 521.208L434.916 519.703L435.921 519.768L435.528 521.404L433.955 524.348L438.455 525.657H423.427L429.062 524.261Z" fill="#76B963"/>
<path d="M475.958 375.083L487.709 382.288L496.244 409.871L484.72 436.343L481.009 436.878L469.691 417.817L470.598 386.363L475.958 375.083Z" fill="#76B963"/>
<path d="M477.255 379.221L478.472 379.962L484.079 414.688L484.368 446.821L481.172 444.783L481.791 415.244L477.255 379.221Z" fill="#282846"/>
<path d="M416.48 450.464L433.653 457.442L431.818 465.779L433.612 466.293L437.858 459.686L445.362 468.62L446.105 480.476L454.103 490.666L457.505 475.721L473.09 462.588L473.647 464.009L459.546 477.574L456.021 493.609L460.515 508.698L462.618 526.792H458.247L456.701 507.957L447.589 505.59L444.971 511.971L440.456 513.762L439.363 508.307L437.693 508.348L436.209 513.597L427.365 510.921L418.48 503.119L432.704 497.5L441.693 498.467L446.393 502.564L456.021 504.725L453.526 493.712L445.053 482.926L433.488 483.091L435.22 478.603L433.612 477.08L430.581 481.361L427.654 479.097L430.746 473.436L429.921 472.675L424.355 475.536L421.325 471.501L416.48 450.464Z" fill="#282846"/>
<path d="M497.293 519.464L527.123 494.824L523.804 489.904L496.097 515.367L519.908 485.108L514.96 480.6L493.912 514.091L509.291 477.471L503.292 475.207L490.675 512.959L497.354 474.507L490.304 473.519C490.304 473.519 487.315 514.132 486.779 513.515C486.243 512.897 484.882 477.512 484.882 477.512L478.182 477.841L483.315 513.988L472.698 476.009L466.266 478.294L480.14 517.549L464.328 487.31L458.082 490.954L478.203 521.296L457.876 500.34L453.361 506.351L479.007 526.812H492.077L528.649 509.356L526.443 502.481L497.334 519.484L497.293 519.464Z" fill="#1C53BE"/>
<path d="M574.891 378.582L550.049 382.74L510.673 406.433L502.283 437.145L504.654 439.533L534.897 432.534L548.627 419.504C548.627 419.504 541.473 419.051 544.235 415.079C546.998 411.106 551.43 415.717 551.43 415.717L569.304 397.911L574.87 378.603L574.891 378.582Z" fill="#76B963"/>
<path d="M544.338 447.376L531.866 445.462L508.611 457.751L499.726 483.976L501.087 485.89L524.485 478.13L542.668 457.998L544.338 447.376Z" fill="#76B963"/>
<path d="M541.883 448.858H540.791L514.959 467.673L495.704 488.71L495.003 494.186L516.732 469.978L541.883 448.858Z" fill="#282846"/>
<path d="M570.828 381.835L569.611 381.608L523.721 412.671L502.59 436.508L494.22 457.051L482.779 444.906L428.745 431.403L428.085 432.082L481.789 448.035L493.581 462.321L489.561 526.792H493.581L497.601 458.657L505.641 438.216L526.236 414.606L570.828 381.835Z" fill="#282846"/>
<path d="M256.12 260.021C248.41 291.001 244.761 320.561 244.761 320.561L258.759 325.419C268.077 304.155 277.004 266.3 277.004 266.3L256.12 260.021Z" fill="#BFCADA"/>
<path opacity="0.3" d="M244.761 322.434L258.759 325.419C268.077 304.155 277.004 266.3 277.004 266.3L269.335 263.994L266.243 264.715C266.243 264.715 262.016 286.761 252.822 304.175L247.05 304.958C246.163 308.436 245.05 321.631 244.761 322.413V322.434Z" fill="black"/>
<path d="M372.7 236.946C393.789 265.497 403.108 300.512 403.108 300.512C403.108 300.512 400.881 304.958 396.614 306.996C382.018 296.477 353.63 252.529 353.63 252.529L372.7 236.946Z" fill="#BFCADA"/>
<path opacity="0.3" d="M372.7 236.946L353.63 251.417C356.702 255.925 362.206 269.161 362.206 269.161C365.175 275.481 378.225 283.447 379.977 287.77C386.347 295.839 391.748 303.476 396.614 306.996C400.881 304.979 403.108 300.512 403.108 300.512C403.108 300.512 393.789 265.477 372.7 236.946Z" fill="black"/>
<path d="M299.309 192.175C299.309 192.175 310.091 189.91 315.76 188.778C339.778 198.988 352.662 200.862 356.806 201.623C366.825 223.155 380.452 239.025 380.452 239.025C380.452 239.025 372.082 251.047 353.92 258.993C356.95 272.414 356.868 310.516 355.342 322.99C358.558 336.967 372.536 459.652 371.979 473.073C338.582 484.95 292.176 479.784 276.282 475.625C279.683 441.064 286.342 326.634 288.61 316.424C287.661 304.896 285.579 294.213 284.507 289.293C274.735 283.776 271.87 275.46 271.87 275.46L272.777 269.1C272.777 269.1 262.036 269.861 250.347 264.262C256.779 240.837 259.397 214.818 259.397 214.818C259.397 214.818 281.745 200.409 299.309 192.154V192.175Z" fill="#1C53BE"/>
<path opacity="0.3" d="M356.826 201.623C352.662 200.862 339.798 198.988 315.78 188.778C310.111 189.91 299.329 192.175 299.329 192.175C281.765 200.429 259.417 214.838 259.417 214.838C259.417 214.838 276.879 208.375 294.175 204.237C311.472 200.12 344.044 210.207 344.044 210.207C344.044 210.207 348.765 203.27 356.867 201.603L356.826 201.623Z" fill="black"/>
<path opacity="0.3" d="M353.938 258.993C354.062 258.952 354.165 258.89 354.268 258.849L341.816 229.289C341.816 229.289 337.178 259.96 339.404 275.502C326.025 289.437 309.285 278.733 309.285 278.733C309.285 278.733 307.471 278.301 297.802 278.075C285.268 284.106 271.847 275.502 271.847 275.502C271.847 275.502 274.713 283.818 284.484 289.334C285.577 294.254 286.464 297.877 287.721 308.087C302.131 306.317 325.922 312.204 338.786 321.097C342.352 350.471 342.064 479.29 342.023 479.434C351.98 479.619 362.123 475.09 371.977 473.094C372.554 459.672 358.556 336.988 355.34 323.011C356.845 310.537 356.948 272.434 353.918 259.013L353.938 258.993Z" fill="black"/>
<path d="M319.41 193.059C313.865 189.169 310.546 185.402 310.546 185.402C310.546 185.402 306.051 178.568 302.877 166.999C292.96 167.123 280.447 181.738 280.447 181.738C280.447 181.738 287.724 195.818 289.373 202.652C287.951 207.242 288.92 219.366 288.92 219.366L306.773 216.979C306.773 216.979 307.907 211.956 311.576 204.834C315.576 197.094 319.41 193.039 319.41 193.039V193.059Z" fill="#BFCADA"/>
<path d="M272.281 138.778C263.251 129.824 265.065 117.555 272.961 111.606C282.733 104.257 300.875 107.572 304.482 121.24C308.09 134.908 295.618 142.854 295.618 142.854L272.281 138.778Z" fill="#282846"/>
<path opacity="0.3" d="M306.773 216.999C306.773 216.999 307.907 211.976 311.576 204.854C315.576 197.114 319.41 193.059 319.41 193.059C313.864 189.169 310.545 185.402 310.545 185.402C310.545 185.402 306.051 178.568 302.876 166.999C300.279 167.04 297.516 168.049 294.836 169.552L289.662 173.03C289.167 173.421 288.693 173.792 288.219 174.183L286.837 195.406C287.951 198.082 288.899 200.655 289.373 202.652C288.899 204.195 288.693 206.83 288.652 208.333C291.661 208.107 297.063 206.748 300.732 205.348C305.144 199.79 305.907 197.361 305.907 197.361C305.907 197.361 308.216 198.823 309.989 200.82C307.927 206.46 305.804 213.664 304.773 217.246L306.773 216.999Z" fill="black"/>
<path opacity="0.3" d="M304.484 121.239C303.948 119.222 303.082 117.431 301.989 115.846C300.092 119.922 297 125.459 293.331 128.156C290.465 126.056 281.291 122.351 272.055 126.838C269.561 121.651 271.189 113.273 271.231 113.108C264.84 119.448 263.933 130.523 272.261 138.798L295.598 142.874C295.598 142.874 308.091 134.928 304.463 121.26L304.484 121.239Z" fill="black"/>
<path d="M253.686 163.808C256.944 176.818 261.995 185.505 261.995 185.505C261.995 185.505 265.685 188.345 267.375 189.663C270.117 194.418 275.91 198.555 285.517 204.237C290.691 203.66 297.556 199.132 297.556 199.132C297.556 199.132 303.143 188.325 303.494 180.07C301.391 172.166 300.587 170.663 300.587 170.663C300.587 170.663 303.391 168.111 305.122 163.232C303.02 152.199 301.391 139.519 289.166 135.566C276.941 131.614 250.862 135.443 253.666 163.808H253.686Z" fill="#BFCADA"/>
<path opacity="0.2" d="M303.514 180.071C301.411 172.166 300.607 170.664 300.607 170.664C300.607 170.664 303.411 168.111 305.142 163.233C303.039 152.199 301.411 139.519 289.186 135.567C278.692 132.17 257.994 134.538 254.119 153.249C261.004 154.196 270.817 155.822 275.93 157.901C284.341 161.318 289.083 172.887 289.083 172.887C289.083 172.887 283.455 176.921 276.837 180.133C278.631 181.759 279.641 183.015 279.641 183.015C279.641 183.015 290.217 179.536 294.36 179.659C295.185 187.975 299.452 195.118 299.452 195.118C301.102 191.207 303.307 185.176 303.514 180.112V180.071Z" fill="black"/>
<path d="M262.697 169.264C270.407 168.049 275.025 164.859 275.025 164.859C275.025 164.859 278.694 160.104 279.973 154.834C284.59 155.596 288.013 157.922 288.013 157.922L292.96 165.497L296.3 162.491C296.3 162.491 295.125 160.124 294.362 157.016C296.197 150.676 298.98 150.799 298.98 150.799C298.98 150.799 302.959 156.707 303.495 162.286C301.66 167.967 299.949 167.761 299.949 167.761L304.155 172.249L305.845 171.384C305.845 171.384 306.113 162.018 305.639 153.228C301.743 138.84 292.198 129.556 275.334 132.129C252.987 135.525 251.276 152.693 251.729 162.388C253.853 168.873 256.471 172.887 256.471 172.887C256.471 172.887 255.564 168.337 256.1 163.706C257.069 162.944 257.399 162.882 257.399 162.882C257.399 162.882 258.677 165.579 262.717 169.264H262.697Z" fill="#282846"/>
<path d="M280.447 198.474C282.323 196.003 286.425 194.46 291.002 194.501C290.775 197.362 288.281 198.7 286.075 199.318C283.869 199.935 281.869 199.688 280.447 198.474Z" fill="#282846"/>
<path opacity="0.3" d="M345.982 217.638C352.084 225.707 361.299 245.818 364.618 253.29C375.4 246.333 380.472 239.046 380.472 239.046C380.472 239.046 366.845 223.175 356.826 201.644C356.826 201.644 348.291 208.416 345.982 217.638Z" fill="black"/>
<path opacity="0.3" d="M270.18 221.508L269.087 227.23L271.891 233.797C271.891 233.797 267.026 255.164 261.439 268.07C268.057 269.491 272.798 269.141 272.798 269.141C272.798 269.141 277.808 239.993 278.22 229.289C271.788 222.105 270.18 221.508 270.18 221.508Z" fill="black"/>
<path d="M327.267 258.416C322.69 267.906 311.228 271.899 301.703 267.309C292.179 262.718 288.159 251.294 292.736 241.804C297.312 232.315 308.774 228.321 318.299 232.912C327.823 237.502 331.843 248.927 327.267 258.416Z" fill="#76B963"/>
<g opacity="0.3">
<path d="M323.35 256.028C323.35 256.028 323.495 255.39 323.763 254.279C324.031 253.167 324.319 251.541 324.196 249.524C324.134 248.515 323.948 247.424 323.598 246.292C323.247 245.16 322.752 244.007 322.051 242.875C321.701 242.319 321.309 241.763 320.876 241.228C320.423 240.693 319.949 240.178 319.413 239.705C318.877 239.231 318.299 238.778 317.681 238.387C317.063 237.996 316.403 237.626 315.702 237.317C315.001 237.008 314.3 236.761 313.578 236.576C312.857 236.37 312.135 236.267 311.434 236.185C310.713 236.102 310.012 236.082 309.332 236.123C308.631 236.143 307.971 236.226 307.311 236.349C306.013 236.576 304.817 237.008 303.745 237.502C302.673 238.017 301.745 238.614 300.962 239.231C299.374 240.487 298.364 241.804 297.725 242.731C297.086 243.677 296.797 244.254 296.715 244.213C296.653 244.192 296.818 243.554 297.354 242.504C297.89 241.475 298.859 240.013 300.467 238.614C301.271 237.914 302.24 237.234 303.353 236.658C304.466 236.082 305.745 235.608 307.146 235.32C307.847 235.176 308.569 235.073 309.311 235.032C310.053 234.991 310.816 234.991 311.579 235.073C312.342 235.155 313.125 235.279 313.908 235.485C314.692 235.691 315.454 235.958 316.197 236.288C316.939 236.617 317.66 237.008 318.341 237.44C319.021 237.873 319.639 238.367 320.217 238.881C320.794 239.396 321.309 239.952 321.783 240.528C322.258 241.104 322.67 241.701 323.02 242.319C323.742 243.533 324.237 244.81 324.567 246.004C324.896 247.218 325.041 248.391 325.061 249.441C325.103 251.582 324.67 253.249 324.257 254.361C323.845 255.472 323.495 256.008 323.433 255.987L323.35 256.028Z" fill="black"/>
</g>
<path d="M307.702 258.663L306.63 260.968L304.569 260.021L305.62 257.778C303.641 256.707 301.971 255.163 301.25 253.764L303.558 251.788C304.239 253.023 305.455 254.278 306.878 255.102L308.465 251.664C306.445 250.058 304.239 248.103 305.599 245.159C306.61 242.977 309.063 241.845 312.506 242.977L313.578 240.692L315.639 241.639L314.588 243.883C316.072 244.727 317.392 245.839 318.196 247.074L315.99 249.132C315.206 248.041 314.299 247.197 313.33 246.6L311.702 250.1C313.743 251.685 315.907 253.62 314.547 256.522C313.557 258.663 311.124 259.795 307.702 258.683V258.663ZM309.867 248.617L311.227 245.694C310.011 245.427 309.31 245.839 309.001 246.518C308.671 247.238 309.104 247.918 309.867 248.617ZM311.104 255.225C311.434 254.505 311.021 253.846 310.279 253.126L308.96 255.966C310.094 256.213 310.795 255.884 311.104 255.225Z" fill="white"/>
<path d="M296.837 243.821C296.837 243.821 296.61 244.418 296.239 245.509C295.888 246.6 295.517 248.247 295.559 250.305C295.559 251.335 295.744 252.446 296.012 253.62C296.342 254.772 296.775 255.987 297.455 257.16C298.135 258.313 298.981 259.486 300.053 260.495C301.125 261.503 302.382 262.368 303.784 263.068C305.207 263.727 306.67 264.159 308.134 264.365C309.598 264.571 311.02 264.488 312.36 264.303C313.7 264.097 314.917 263.665 316.03 263.212C317.122 262.697 318.091 262.121 318.895 261.483C320.524 260.227 321.575 258.91 322.214 257.942C322.833 256.975 323.122 256.399 323.163 256.419C323.163 256.419 323.101 256.563 322.977 256.851C322.833 257.119 322.668 257.551 322.338 258.025C321.74 259.013 320.71 260.392 319.06 261.689C318.256 262.347 317.267 262.944 316.153 263.5C315.02 263.994 313.783 264.447 312.401 264.653C311.041 264.859 309.557 264.941 308.072 264.735C306.567 264.529 305.062 264.097 303.599 263.418C302.156 262.697 300.877 261.792 299.764 260.762C298.651 259.733 297.806 258.539 297.105 257.345C296.404 256.131 295.991 254.896 295.662 253.702C295.394 252.508 295.229 251.355 295.249 250.326C295.249 248.226 295.662 246.58 296.053 245.489C296.239 244.933 296.466 244.542 296.569 244.254C296.692 243.986 296.775 243.842 296.775 243.842L296.837 243.821Z" fill="#263238"/>
<path d="M342.046 247.527C373.278 266.361 390.781 282.212 390.781 282.212C390.781 282.212 400.202 296.621 402.202 302.035C398.12 308.045 393.709 309.013 393.709 309.013C393.709 309.013 386.699 307.531 374.33 298.968C357.693 282.17 339.984 263.274 335.325 257.798C329.202 259.013 324.275 259.466 324.275 259.466C324.275 259.466 314.957 255.205 312.524 252.179C312.937 247.115 312.38 245.159 312.38 245.159L310.009 242.422C310.009 242.422 310.483 238.078 312.091 233.817C320.709 234.002 327.326 235.896 327.326 235.896L330.254 237.317L331.759 231.265C331.759 231.265 335.222 232.376 337.985 234.147C342.005 241.557 342.067 247.506 342.067 247.506L342.046 247.527Z" fill="#BFCADA"/>
<path d="M255.79 318.338C255.79 318.338 256.058 315.024 254.491 312.101C251.77 311.731 248.45 312.636 248.45 312.636C248.45 312.636 246.677 306.955 242.884 302.879C237.462 301.932 235.689 302.2 235.689 302.2L234.473 303.97L229.051 304.238L227.155 306.276L220.908 305.061L217.115 309.405C219.547 315.765 219.836 318.894 219.836 318.894L224.99 319.697L225.402 311.813H227.299C227.299 311.813 228.783 316.177 229.195 320.932C231.092 321.2 232.185 321.344 232.185 321.344L233.669 316.074C233.669 316.074 235.03 319.985 235.153 322.97C236.926 323.505 238.947 322.826 238.947 322.826C238.947 322.826 239.359 319.779 239.359 313.995L255.769 318.379L255.79 318.338Z" fill="#BFCADA"/>
<path opacity="0.2" d="M237.462 323.114C238.349 323.031 238.988 322.805 238.988 322.805C238.988 322.805 239.4 319.758 239.4 313.974L252.78 317.535C252.78 317.535 252.718 316.568 252.347 314.962C249.584 314.448 248.492 312.636 248.492 312.636C248.492 312.636 246.719 306.955 242.926 302.879L237.462 311.813V323.093V323.114Z" fill="black"/>
<g opacity="0.2">
<path d="M220.928 305.061L217.134 309.404L221.113 310.166C221.113 310.166 222.494 315.065 222.515 319.305L224.989 319.696L225.401 311.812H227.298L225.937 308.231L227.174 306.296L220.928 305.081V305.061Z" fill="black"/>
<path d="M234.492 303.97L232.368 304.073L229.441 310.804C229.441 310.804 230.905 314.386 231.255 317.103C231.42 318.461 231.276 319.985 231.09 321.158C231.812 321.261 232.203 321.302 232.203 321.302L233.688 316.032L231.709 309.898L234.512 303.97H234.492Z" fill="black"/>
</g>
<path opacity="0.3" d="M331.758 231.285L330.253 237.337C330.253 237.337 335.654 240.445 338.396 245.344C340.355 246.312 342.045 247.547 342.045 247.547C342.045 247.547 341.983 241.598 337.963 234.188C335.201 232.417 331.737 231.306 331.737 231.306L331.758 231.285Z" fill="black"/>
<path opacity="0.2" d="M386.143 298.968C373.361 289.54 336.83 253.27 336.83 253.27L324.646 251.541L317.183 246.868L318.173 241.66L315.431 240.24L317.06 234.147C315.287 233.961 314.174 233.9 312.091 233.858C310.483 238.099 310.009 242.463 310.009 242.463L312.38 245.201C312.38 245.201 312.937 247.156 312.524 252.22C314.957 255.266 324.275 259.507 324.275 259.507C324.275 259.507 329.202 259.033 335.325 257.84C339.984 263.315 357.693 282.191 374.33 299.009C386.699 307.572 393.709 309.054 393.709 309.054C393.709 309.054 396.141 308.519 399.048 305.802C396.121 305.04 386.163 299.009 386.163 299.009L386.143 298.968Z" fill="black"/>
<path opacity="0.2" d="M271.088 188.387C273.294 189.52 275.562 192.443 275.562 192.443L276.304 192.216C274.407 189.17 271.706 184.517 269.459 182.974C266.8 184.044 262.017 185.506 262.017 185.506C262.017 185.506 265.584 188.264 267.336 189.602C268.264 189.314 270.14 188.614 271.109 188.387H271.088Z" fill="black"/>
<path opacity="0.2" d="M299.949 167.761L304.155 172.249L305.845 171.384C305.845 171.384 306.113 162.018 305.639 153.228C301.743 138.84 292.198 129.556 275.334 132.129C252.987 135.525 251.276 152.693 251.729 162.388C253.853 168.873 256.471 172.887 256.471 172.887C256.471 172.887 253.605 163.644 254.141 159.013C255.11 158.272 256.182 156.028 256.182 154.052C259.419 150.305 266.985 146.641 280.735 144.665C280.674 147.073 284.137 148.658 284.137 148.658C287.807 149.626 290.342 154.196 290.342 154.196L294.754 163.912L296.3 162.512C296.3 162.512 295.125 160.145 294.362 157.036C296.197 150.696 298.98 150.82 298.98 150.82C298.98 150.82 302.959 156.728 303.495 162.306C301.66 167.987 299.949 167.782 299.949 167.782V167.761Z" fill="black"/>
<path d="M203.587 475.337L222.677 517.453H231.913L233.233 514.242L234.861 517.453H240.922L240.221 492.854L239.912 478.342L203.587 475.337Z" fill="#1C53BE"/>
<g opacity="0.3">
<path d="M203.587 475.337L222.677 517.453H231.913L233.233 514.242L234.861 517.453H240.922L240.221 492.854L239.912 478.342L203.587 475.337Z" fill="black"/>
</g>
<path d="M287.204 479.845L305.82 517.453H315.056L316.375 514.509L318.004 517.453H324.065L323.364 494.954L323.055 481.636L287.204 479.845Z" fill="#1C53BE"/>
<g opacity="0.3">
<path d="M287.207 479.845L305.822 517.453H315.058L316.378 514.509L318.006 517.453H324.067L323.366 494.954L323.057 481.636L287.207 479.845Z" fill="black"/>
</g>
<path d="M393.169 368.997C393.169 368.997 393.23 368.997 393.334 369.059C393.457 369.121 393.622 369.182 393.828 369.265C394.241 369.491 394.88 369.821 395.56 370.418C396.24 371.014 397.003 371.838 397.663 372.949C398.302 374.061 398.817 375.481 398.92 377.108C399.044 378.734 398.632 380.566 397.622 382.213C396.632 383.859 395.024 385.3 393.024 386.144C391.045 386.988 388.571 387.173 386.386 386.144C385.314 385.63 384.366 384.703 383.933 383.55C383.459 382.418 383.5 380.977 384.263 379.907C385.026 378.837 386.283 378.26 387.52 378.178C388.778 378.096 389.994 378.569 390.922 379.289C392.839 380.751 393.725 383.139 393.663 385.28C393.622 387.462 392.777 389.438 391.561 390.94C390.963 391.681 390.262 392.32 389.499 392.793C388.736 393.266 387.953 393.596 387.17 393.843C385.603 394.296 384.098 394.337 382.82 394.172C381.541 394.008 380.469 393.658 379.645 393.308C378.82 392.958 378.222 392.567 377.831 392.299C377.666 392.175 377.521 392.052 377.398 391.97C377.295 391.887 377.253 391.846 377.253 391.846C377.295 391.784 378.037 392.484 379.707 393.164C380.531 393.493 381.583 393.822 382.84 393.966C384.098 394.11 385.562 394.049 387.087 393.596C387.85 393.349 388.613 393.019 389.334 392.546C390.056 392.093 390.736 391.455 391.313 390.735C392.468 389.294 393.272 387.359 393.313 385.259C393.375 383.201 392.509 380.936 390.695 379.557C389.808 378.878 388.674 378.425 387.541 378.507C386.407 378.59 385.252 379.125 384.572 380.092C383.871 381.039 383.85 382.336 384.283 383.386C384.696 384.456 385.541 385.3 386.551 385.794C388.592 386.782 390.983 386.618 392.901 385.815C394.839 385.012 396.385 383.633 397.374 382.048C398.364 380.463 398.776 378.713 398.673 377.128C398.591 375.543 398.096 374.143 397.498 373.052C396.879 371.941 396.158 371.117 395.498 370.52C394.158 369.327 393.148 369.038 393.189 368.977L393.169 368.997Z" fill="#1C53BE"/>
<path d="M384.055 407.119C386.838 469.614 334.351 500.8 274.957 500.8C215.564 500.8 167.406 460.187 167.406 410.104C167.406 360.022 215.564 319.408 274.957 319.408C334.351 319.408 381.828 357.078 384.055 407.119Z" fill="#1C53BE"/>
<g opacity="0.3">
<path d="M267.455 341.804C267.455 341.804 274.588 339.54 281.267 347.074C287.946 354.608 297.223 367.432 297.223 367.432C296.399 371.611 293.946 374.863 289.204 376.798L267.455 341.784V341.804Z" fill="black"/>
</g>
<path d="M204.225 475.089C224.56 475.089 241.045 462.472 241.045 446.909C241.045 431.345 224.56 418.729 204.225 418.729C183.89 418.729 167.406 431.345 167.406 446.909C167.406 462.472 183.89 475.089 204.225 475.089Z" fill="#1C53BE"/>
<path d="M238.572 371.569C238.572 371.569 260.156 338.14 270.031 341.763C279.906 345.386 289.204 376.818 289.204 376.818" fill="#1C53BE"/>
<path d="M214.165 363.912L213.155 354.855C213.155 354.855 199.631 349.215 187.529 346.456C175.428 343.698 173.037 346.456 173.037 346.456L192.188 373.237L214.165 363.912Z" fill="#1C53BE"/>
<g opacity="0.3">
<path d="M242.962 331.841L250.116 336.081C250.116 336.081 284.812 326.921 311.447 336.081L301.676 327.765C301.676 327.765 269.371 320.828 242.962 331.82V331.841Z" fill="black"/>
</g>
<g opacity="0.3">
<path d="M204.223 475.089C224.558 475.089 241.043 462.472 241.043 446.909C241.043 431.345 224.558 418.729 204.223 418.729C183.888 418.729 167.404 431.345 167.404 446.909C167.404 462.472 183.888 475.089 204.223 475.089Z" fill="black"/>
</g>
<path d="M194.867 475.089C213.927 475.089 229.378 462.472 229.378 446.909C229.378 431.345 213.927 418.729 194.867 418.729C175.808 418.729 160.357 431.345 160.357 446.909C160.357 462.472 175.808 475.089 194.867 475.089Z" fill="#1C53BE"/>
<g opacity="0.3">
<path d="M181.612 460.125C179.571 460.125 177.921 458.478 177.921 456.44V437.379C177.921 435.341 179.571 433.694 181.612 433.694C183.653 433.694 185.302 435.341 185.302 437.379V456.44C185.302 458.478 183.653 460.125 181.612 460.125Z" fill="black"/>
</g>
<g opacity="0.3">
<path d="M205.132 437.358C205.132 435.323 203.48 433.674 201.442 433.674C199.404 433.674 197.751 435.323 197.751 437.358V456.42C197.751 458.455 199.404 460.105 201.442 460.105C203.48 460.105 205.132 458.455 205.132 456.42V437.358Z" fill="black"/>
</g>
<g opacity="0.3">
<path d="M212.06 364.797C215.173 363.048 216.822 360.433 215.668 356.111C215.668 356.111 199.629 349.215 187.527 346.436C175.426 343.678 173.035 346.436 173.035 346.436L192.187 373.217L212.06 364.777V364.797Z" fill="black"/>
</g>
<path d="M213.154 365.518C213.154 365.518 212.247 364.9 210.742 363.891C203.609 359.136 182.746 345.53 177.448 345.365C170.191 345.159 170.17 351.417 170.191 356.234C170.191 359.672 173.015 389.478 173.015 389.478" fill="#1C53BE"/>
<path d="M289.205 376.798C289.205 376.798 289.163 376.736 289.122 376.592C289.06 376.428 288.999 376.222 288.916 375.975C288.731 375.419 288.463 374.616 288.112 373.608C287.411 371.549 286.38 368.606 284.958 364.983C283.535 361.38 281.742 357.119 279.309 352.632C278.072 350.409 276.691 348.083 274.939 345.942C274.052 344.871 273.083 343.842 271.949 342.998C270.816 342.175 269.476 341.496 268.012 341.66C266.569 341.784 265.208 342.381 263.971 343.06C262.734 343.76 261.58 344.583 260.487 345.448C258.323 347.197 256.405 349.091 254.653 350.944C251.148 354.67 248.283 358.293 245.912 361.36C243.562 364.447 241.748 367 240.49 368.77C239.892 369.635 239.397 370.335 239.068 370.829C238.923 371.055 238.8 371.22 238.697 371.364C238.614 371.487 238.573 371.549 238.552 371.549C238.552 371.549 238.573 371.487 238.655 371.343C238.738 371.199 238.861 371.014 239.006 370.787C239.315 370.314 239.769 369.594 240.366 368.708C241.583 366.918 243.356 364.324 245.685 361.216C248.015 358.128 250.88 354.484 254.385 350.717C256.137 348.844 258.055 346.93 260.24 345.18C261.332 344.316 262.487 343.451 263.765 342.751C265.023 342.051 266.424 341.434 267.95 341.31C268.713 341.249 269.496 341.331 270.197 341.619C270.898 341.907 271.537 342.278 272.135 342.71C273.331 343.575 274.3 344.624 275.186 345.715C276.98 347.877 278.34 350.223 279.577 352.467C282.01 356.996 283.783 361.277 285.185 364.88C286.566 368.503 287.576 371.487 288.236 373.546C288.566 374.575 288.813 375.378 288.957 375.934C289.019 376.201 289.081 376.407 289.122 376.551C289.163 376.695 289.184 376.757 289.163 376.778L289.205 376.798Z" fill="#03054E"/>
<path d="M301.696 327.766C301.696 327.766 301.758 327.807 301.882 327.889C302.005 327.992 302.17 328.116 302.377 328.28C302.83 328.651 303.449 329.186 304.253 329.845C305.902 331.244 308.231 333.221 311.138 335.67L311.592 336.061L311.014 335.897C307.448 334.908 303.181 333.879 298.356 333.138C293.553 332.397 288.214 331.903 282.586 331.862C269.227 331.636 257.517 334.147 250.425 336.185H250.384H250.343C248.034 334.826 246.178 333.756 244.9 332.994C244.282 332.624 243.808 332.335 243.457 332.13C243.313 332.047 243.189 331.965 243.086 331.903C243.004 331.841 242.962 331.821 242.962 331.821C242.962 331.821 243.004 331.821 243.107 331.883C243.21 331.944 243.333 332.006 243.478 332.088C243.828 332.274 244.323 332.562 244.942 332.891C246.24 333.632 248.096 334.661 250.446 335.999H250.363C253.909 334.95 258.589 333.756 264.093 332.871C266.835 332.418 269.783 332.088 272.896 331.821C275.989 331.615 279.246 331.45 282.586 331.512C288.214 331.574 293.574 332.068 298.398 332.829C303.222 333.591 307.51 334.641 311.076 335.67L310.953 335.897C308.087 333.406 305.778 331.389 304.149 329.989C303.366 329.289 302.748 328.754 302.315 328.363C302.129 328.177 301.964 328.054 301.84 327.93C301.737 327.827 301.676 327.786 301.696 327.766Z" fill="#03054E"/>
<path d="M215.441 424.287C215.441 424.287 215.359 424.246 215.235 424.164C215.091 424.061 214.905 423.937 214.658 423.793C214.411 423.629 214.101 423.423 213.73 423.176C213.359 422.949 212.906 422.723 212.411 422.435C210.411 421.344 207.319 420.068 203.299 419.347C201.278 419.018 199.052 418.771 196.661 418.73C194.269 418.73 191.692 418.874 189.033 419.285C183.714 420.109 177.942 422.023 172.829 425.584C171.571 426.49 170.355 427.437 169.262 428.487C168.17 429.536 167.16 430.627 166.273 431.78C164.48 434.086 163.098 436.597 162.129 439.088C160.295 444.152 160.336 449.195 161.222 453.147C161.676 455.144 162.377 456.852 163.078 458.293C163.841 459.714 164.624 460.887 165.345 461.772C165.717 462.204 166.046 462.595 166.314 462.925C166.624 463.234 166.892 463.481 167.098 463.707C167.304 463.913 167.469 464.078 167.593 464.201C167.696 464.304 167.757 464.366 167.757 464.366C167.757 464.366 167.696 464.325 167.572 464.222C167.448 464.098 167.283 463.954 167.057 463.769C166.83 463.563 166.562 463.316 166.232 463.007C165.943 462.678 165.593 462.287 165.222 461.875C164.48 460.99 163.676 459.837 162.892 458.417C162.171 456.955 161.429 455.226 160.954 453.229C160.027 449.236 159.965 444.152 161.8 439.005C162.294 437.729 162.851 436.453 163.573 435.218C164.253 433.962 165.077 432.768 165.964 431.574C166.871 430.401 167.902 429.289 168.994 428.219C170.108 427.169 171.324 426.202 172.602 425.296C177.777 421.714 183.611 419.779 188.971 418.977C191.651 418.565 194.249 418.421 196.661 418.441C199.073 418.503 201.32 418.75 203.34 419.1C207.381 419.862 210.494 421.2 212.473 422.311C212.967 422.599 213.421 422.846 213.792 423.093C214.143 423.34 214.452 423.567 214.699 423.752C214.926 423.917 215.111 424.061 215.256 424.164C215.379 424.267 215.441 424.308 215.441 424.308V424.287Z" fill="#03054E"/>
<path d="M185.095 436.164C185.095 436.164 185.136 436.555 185.177 437.296C185.218 438.078 185.26 439.128 185.301 440.363C185.404 442.957 185.631 446.539 185.713 450.491C185.734 451.479 185.754 452.447 185.734 453.393C185.734 454.32 185.693 455.246 185.528 456.111C185.239 457.84 184.249 459.301 183.013 459.898C181.755 460.495 180.559 460.166 179.982 459.734C179.673 459.528 179.487 459.301 179.384 459.137C179.281 458.972 179.24 458.869 179.261 458.869C179.302 458.848 179.467 459.239 180.065 459.61C180.642 459.96 181.776 460.248 182.909 459.651C184.023 459.075 184.93 457.696 185.198 456.049C185.342 455.225 185.363 454.32 185.383 453.393C185.383 452.467 185.383 451.5 185.342 450.512C185.239 446.559 185.074 442.978 185.033 440.384C185.012 439.087 185.012 438.037 185.033 437.317C185.033 436.596 185.074 436.185 185.095 436.185V436.164Z" fill="#03054E"/>
<path d="M204.661 436.164C204.661 436.164 204.702 436.555 204.744 437.296C204.785 438.078 204.826 439.128 204.867 440.363C204.97 442.957 205.197 446.539 205.28 450.491C205.3 451.479 205.321 452.447 205.3 453.393C205.3 454.32 205.259 455.246 205.094 456.111C204.805 457.84 203.816 459.301 202.579 459.898C201.321 460.495 200.126 460.166 199.548 459.734C199.239 459.528 199.054 459.301 198.951 459.137C198.848 458.972 198.806 458.869 198.827 458.869C198.868 458.848 199.033 459.239 199.631 459.61C200.208 459.96 201.342 460.248 202.476 459.651C203.589 459.075 204.496 457.696 204.764 456.049C204.909 455.225 204.929 454.32 204.95 453.393C204.95 452.467 204.95 451.5 204.909 450.512C204.805 446.559 204.641 442.978 204.599 440.384C204.579 439.087 204.579 438.037 204.599 437.317C204.599 436.596 204.641 436.185 204.661 436.185V436.164Z" fill="#03054E"/>
<path d="M228.946 453.044C228.946 453.044 228.905 453.208 228.802 453.538C228.678 453.846 228.554 454.32 228.286 454.896C227.812 456.07 226.967 457.716 225.71 459.59C224.452 461.483 222.679 463.562 220.473 465.58C219.36 466.588 218.123 467.576 216.783 468.503C215.443 469.429 213.979 470.294 212.412 471.076C209.32 472.62 206.187 473.772 203.239 474.39C200.291 475.049 197.569 475.172 195.302 475.193C193.034 475.193 191.199 475.049 189.941 474.966C189.344 474.925 188.849 474.884 188.478 474.843C188.148 474.822 187.962 474.781 187.962 474.781C187.962 474.781 188.148 474.781 188.478 474.781C188.849 474.781 189.323 474.802 189.941 474.822C191.199 474.863 193.034 474.946 195.302 474.925C197.549 474.884 200.249 474.719 203.156 474.061C206.063 473.422 209.155 472.27 212.248 470.746C213.794 469.985 215.237 469.12 216.577 468.215C217.917 467.288 219.133 466.321 220.246 465.333C222.452 463.336 224.225 461.298 225.503 459.446C226.782 457.593 227.668 455.987 228.183 454.835C228.472 454.279 228.616 453.805 228.761 453.497C228.884 453.188 228.967 453.023 228.987 453.044H228.946Z" fill="#03054E"/>
<path d="M184.662 435.382C184.662 435.382 184.538 435.094 184.167 434.682C183.817 434.291 183.116 433.797 182.147 433.776C181.199 433.735 180.003 434.168 179.158 435.114C178.725 435.588 178.415 436.185 178.251 436.864C178.086 437.543 178.044 438.264 178.044 439.026C178.065 442.072 178.086 444.83 178.065 446.807C178.065 447.753 178.044 448.536 178.024 449.174C178.024 449.73 177.983 450.038 177.962 450.038C177.941 450.038 177.9 449.73 177.879 449.174C177.859 448.536 177.838 447.753 177.797 446.807C177.735 444.81 177.694 442.072 177.673 439.005C177.673 438.243 177.715 437.482 177.9 436.761C178.086 436.041 178.436 435.382 178.91 434.888C179.859 433.879 181.137 433.447 182.168 433.529C183.219 433.612 183.94 434.168 184.291 434.62C184.476 434.847 184.559 435.053 184.621 435.197C184.662 435.341 184.683 435.423 184.683 435.423L184.662 435.382Z" fill="white"/>
<path d="M197.63 437.009C197.63 437.009 197.816 440.735 197.816 445.325C197.816 449.915 197.733 453.641 197.63 453.641C197.527 453.641 197.445 449.915 197.445 445.325C197.445 440.735 197.527 437.009 197.63 437.009Z" fill="white"/>
<path d="M191.69 420.973C191.69 420.973 191.546 420.994 191.258 420.994C190.969 420.994 190.557 420.994 190.021 421.014C188.949 421.035 187.382 421.158 185.485 421.508C181.713 422.167 176.517 423.978 171.941 427.684C167.364 431.409 164.54 436.103 163.138 439.664C162.416 441.455 161.983 442.958 161.736 444.007C161.592 444.522 161.53 444.934 161.447 445.222C161.386 445.489 161.344 445.633 161.324 445.633C161.324 445.633 161.324 445.489 161.365 445.201C161.406 444.913 161.447 444.501 161.571 443.966C161.777 442.896 162.169 441.372 162.87 439.561C164.231 435.938 167.055 431.162 171.693 427.395C176.332 423.629 181.609 421.838 185.423 421.241C187.341 420.932 188.928 420.85 190 420.87C190.536 420.87 190.969 420.911 191.258 420.911C191.546 420.911 191.69 420.952 191.69 420.952V420.973Z" fill="white"/>
<path d="M173.179 384.97C173.179 384.97 173.138 385.114 173.056 385.361C172.932 385.649 172.788 386.02 172.623 386.473C172.417 386.946 172.19 387.543 171.942 388.243C171.695 388.943 171.386 389.725 171.118 390.61C170.829 391.495 170.52 392.463 170.231 393.513C169.922 394.562 169.654 395.695 169.366 396.888C168.83 399.297 168.376 401.952 168.067 404.772C167.778 407.592 167.696 410.31 167.716 412.759C167.757 413.994 167.778 415.168 167.861 416.259C167.922 417.35 168.026 418.358 168.129 419.284C168.211 420.211 168.355 421.034 168.458 421.775C168.562 422.516 168.665 423.134 168.747 423.648C168.83 424.122 168.891 424.513 168.953 424.842C168.994 425.11 169.015 425.254 168.994 425.254C168.994 425.254 168.933 425.11 168.871 424.842C168.809 424.534 168.706 424.142 168.603 423.669C168.479 423.154 168.355 422.537 168.252 421.796C168.129 421.055 167.984 420.231 167.881 419.305C167.757 418.379 167.634 417.37 167.572 416.259C167.469 415.168 167.428 413.994 167.386 412.759C167.345 410.289 167.428 407.572 167.716 404.731C168.025 401.89 168.5 399.214 169.056 396.806C169.366 395.612 169.634 394.459 169.963 393.41C170.252 392.36 170.582 391.372 170.891 390.507C171.18 389.622 171.51 388.84 171.778 388.14C172.046 387.44 172.293 386.864 172.52 386.39C172.726 385.937 172.891 385.587 173.014 385.299C173.138 385.052 173.2 384.929 173.221 384.929L173.179 384.97Z" fill="white"/>
<path d="M174.252 348.227C174.252 348.227 173.963 348.618 173.53 349.359C173.118 350.1 172.623 351.252 172.355 352.755C172.066 354.258 171.963 356.069 171.922 358.107C171.86 360.145 171.86 362.368 171.922 364.715C172.046 369.408 172.417 373.628 172.767 376.675C172.953 378.157 173.097 379.371 173.221 380.277C173.262 380.668 173.303 380.997 173.345 381.265C173.365 381.491 173.386 381.615 173.345 381.615C173.345 381.615 173.303 381.512 173.262 381.286C173.2 381.018 173.138 380.709 173.077 380.318C172.912 379.474 172.726 378.239 172.499 376.716C172.066 373.669 171.654 369.429 171.551 364.735C171.489 362.389 171.51 360.145 171.592 358.107C171.654 356.069 171.778 354.237 172.108 352.714C172.417 351.191 172.953 350.038 173.427 349.297C173.654 348.926 173.86 348.659 174.025 348.494C174.169 348.329 174.252 348.247 174.272 348.247L174.252 348.227Z" fill="white"/>
<path d="M243.129 326.077C243.129 326.077 242.985 326.159 242.676 326.262C242.346 326.386 241.913 326.53 241.356 326.736C240.161 327.148 238.532 327.703 236.512 328.403C232.43 329.824 226.761 331.8 220.782 334.579C214.803 337.358 209.732 340.589 206.372 343.307C204.681 344.645 203.382 345.818 202.496 346.641C202.042 347.053 201.733 347.382 201.486 347.609C201.259 347.835 201.135 347.938 201.115 347.938C201.115 347.938 201.218 347.794 201.424 347.568C201.651 347.341 201.96 346.971 202.393 346.559C203.238 345.694 204.516 344.5 206.207 343.121C209.547 340.363 214.618 337.069 220.617 334.27C226.616 331.47 232.306 329.535 236.409 328.177C238.47 327.497 240.14 326.983 241.295 326.633C241.851 326.468 242.284 326.345 242.635 326.242C242.944 326.159 243.109 326.118 243.109 326.118L243.129 326.077Z" fill="white"/>
<path d="M267.765 343.595C267.765 343.595 267.662 343.698 267.456 343.842C267.208 344.027 266.899 344.233 266.507 344.5C265.683 345.056 264.508 345.9 263.085 346.991C261.663 348.062 259.993 349.4 258.22 350.943C256.447 352.508 254.55 354.278 252.654 356.234C250.757 358.21 249.066 360.165 247.562 361.997C246.077 363.829 244.799 365.538 243.789 367C242.758 368.461 241.954 369.676 241.439 370.519C241.191 370.911 240.985 371.219 240.8 371.487C240.655 371.713 240.573 371.816 240.552 371.816C240.552 371.816 240.593 371.693 240.738 371.446C240.882 371.178 241.068 370.849 241.315 370.437C241.81 369.573 242.573 368.338 243.583 366.855C244.572 365.373 245.83 363.644 247.314 361.771C248.798 359.918 250.51 357.942 252.406 355.966C254.303 354.011 256.22 352.22 258.014 350.676C259.828 349.132 261.498 347.815 262.961 346.765C264.404 345.715 265.621 344.892 266.466 344.377C266.858 344.13 267.188 343.924 267.456 343.759C267.682 343.615 267.806 343.554 267.806 343.574L267.765 343.595Z" fill="white"/>
<path d="M376.841 392.751C376.841 392.751 377.233 393.41 377.687 394.542C378.14 395.674 378.697 397.259 379.15 399.07C379.604 400.882 379.892 402.529 380.016 403.743C380.16 404.958 380.181 405.699 380.14 405.719C380.078 405.719 379.975 404.978 379.769 403.784C379.563 402.59 379.253 400.944 378.8 399.173C378.346 397.383 377.831 395.798 377.46 394.645C377.068 393.492 376.821 392.792 376.862 392.772L376.841 392.751Z" fill="white"/>
<path d="M359.895 473.773C359.895 473.773 359.771 473.876 359.545 474.04C359.297 474.205 358.947 474.452 358.514 474.781C358.06 475.111 357.483 475.502 356.823 475.975C356.494 476.202 356.122 476.469 355.731 476.737C355.339 476.984 354.906 477.272 354.473 477.56C350.927 479.927 345.629 483.118 338.785 486.515C337.074 487.359 335.26 488.182 333.363 489.046C332.394 489.458 331.425 489.87 330.435 490.282C329.941 490.487 329.425 490.714 328.931 490.92C328.415 491.126 327.9 491.311 327.364 491.517C326.312 491.908 325.24 492.319 324.168 492.731C323.076 493.102 321.962 493.493 320.829 493.884C319.695 494.296 318.54 494.646 317.365 494.995C316.19 495.345 315.015 495.757 313.778 496.066C308.933 497.466 303.738 498.598 298.337 499.545C292.915 500.471 287.266 501.13 281.432 501.356C275.619 501.603 269.908 501.418 264.445 500.821C263.765 500.759 263.084 500.697 262.404 500.615C261.724 500.553 261.064 500.43 260.384 500.347C259.044 500.162 257.724 499.977 256.426 499.792C255.127 499.545 253.849 499.318 252.57 499.071C251.931 498.948 251.313 498.824 250.674 498.721C250.055 498.577 249.437 498.433 248.818 498.289C238.964 496.086 230.326 493.122 223.358 490.014C216.369 486.926 210.989 483.859 207.443 481.492C205.629 480.38 204.33 479.351 203.402 478.713C202.949 478.384 202.619 478.137 202.371 477.951C202.145 477.787 202.021 477.684 202.021 477.684C202.021 477.684 202.145 477.766 202.392 477.91C202.639 478.075 202.99 478.322 203.443 478.631C204.371 479.248 205.691 480.257 207.525 481.348C211.092 483.674 216.493 486.7 223.482 489.746C230.45 492.814 239.088 495.757 248.921 497.918C249.54 498.063 250.158 498.207 250.777 498.33C251.395 498.454 252.034 498.557 252.673 498.68C253.952 498.907 255.23 499.154 256.529 499.38C257.827 499.565 259.147 499.751 260.487 499.936C261.146 500.018 261.827 500.142 262.486 500.203C263.167 500.265 263.847 500.327 264.527 500.409C269.97 501.006 275.66 501.171 281.473 500.924C287.287 500.697 292.936 500.039 298.337 499.112C303.738 498.186 308.913 497.054 313.757 495.675C314.974 495.366 316.149 494.954 317.324 494.625C318.499 494.275 319.653 493.925 320.787 493.513C321.921 493.122 323.034 492.752 324.127 492.381C325.199 491.97 326.271 491.558 327.322 491.167C327.838 490.961 328.374 490.776 328.889 490.57C329.405 490.364 329.899 490.137 330.394 489.932C331.384 489.52 332.373 489.108 333.322 488.697C335.218 487.832 337.032 487.029 338.744 486.185C345.588 482.83 350.907 479.68 354.473 477.354C354.927 477.066 355.339 476.799 355.751 476.552C356.143 476.284 356.514 476.037 356.844 475.811C357.524 475.358 358.102 474.967 358.555 474.637C359.009 474.328 359.359 474.102 359.606 473.937C359.854 473.773 359.978 473.711 359.978 473.711L359.895 473.773Z" fill="#03054E"/>
<path d="M329.425 481.327L343.65 517.639H353.36L355.483 514.489L357.978 517.639H361.42L362.678 460.084L329.425 481.327Z" fill="#1C53BE"/>
<path d="M240.076 486.432L252.095 517.638H263.145L265.392 514.015L267.577 517.638H270.319C270.319 517.638 271.514 482.438 270.319 481.43C269.123 480.421 240.076 486.432 240.076 486.432Z" fill="#1C53BE"/>
<path d="M380.511 416.691C380.511 416.691 380.511 416.753 380.511 416.897C380.511 417.062 380.49 417.247 380.469 417.494C380.408 418.05 380.346 418.832 380.243 419.82C380.201 420.335 380.14 420.891 380.078 421.508C379.995 422.126 379.872 422.785 379.768 423.484C379.521 424.905 379.315 426.531 378.841 428.301C378.635 429.186 378.408 430.113 378.181 431.08C377.954 432.048 377.604 433.015 377.315 434.044C376.759 436.103 375.913 438.244 375.089 440.487C373.275 444.934 370.945 449.709 368.018 454.423C365.028 459.116 361.73 463.275 358.473 466.815C356.803 468.544 355.236 470.212 353.607 471.611C352.803 472.332 352.061 473.052 351.298 473.67C350.515 474.287 349.773 474.884 349.072 475.461C347.691 476.634 346.289 477.54 345.114 478.363C344.516 478.775 343.98 479.166 343.464 479.516C342.928 479.845 342.454 480.133 342.021 480.401C341.176 480.916 340.496 481.307 340.022 481.595C339.795 481.718 339.63 481.821 339.486 481.904C339.362 481.965 339.3 482.007 339.3 482.007C339.3 482.007 339.362 481.965 339.465 481.883C339.589 481.801 339.754 481.677 339.98 481.554C340.455 481.245 341.114 480.833 341.959 480.298C342.392 480.03 342.867 479.722 343.382 479.392C343.897 479.042 344.433 478.651 345.011 478.219C346.165 477.354 347.546 476.449 348.928 475.275C349.628 474.699 350.371 474.102 351.133 473.485C351.896 472.846 352.618 472.126 353.422 471.405C355.03 470.006 356.576 468.318 358.246 466.609C361.462 463.048 364.74 458.911 367.708 454.238C370.636 449.545 372.965 444.79 374.779 440.364C375.625 438.12 376.47 436 377.027 433.941C377.336 432.912 377.666 431.945 377.913 430.998C378.14 430.03 378.367 429.125 378.593 428.239C379.068 426.49 379.294 424.864 379.562 423.443C379.686 422.743 379.83 422.085 379.913 421.467C379.995 420.85 380.057 420.294 380.119 419.8C380.243 418.812 380.346 418.029 380.408 417.474C380.449 417.227 380.469 417.021 380.49 416.877C380.511 416.733 380.531 416.671 380.531 416.671L380.511 416.691Z" fill="white"/>
<g opacity="0.2">
<path d="M365.112 386.061C361.875 378.074 354.845 370.54 346.702 367.226C340.084 364.55 332.704 369.264 332.333 376.407C332.333 376.448 332.333 376.51 332.333 376.551C332.085 381.677 334.085 386.637 336.559 391.125C339.012 395.612 341.981 399.873 343.898 404.628C347.052 412.451 347.155 421.467 344.187 429.351C342.29 434.373 339.136 439.746 342.001 444.748C343.877 448.041 347.63 449.647 351.402 449.318C358.618 448.659 362.39 442.154 365.812 436.226C368.575 431.471 370.843 424.06 370.966 418.461C371.234 406.893 369.482 396.765 365.153 386.04L365.112 386.061Z" fill="white"/>
</g>
<g opacity="0.2">
<path d="M338.042 365.456C338.228 365.456 338.414 365.477 338.579 365.477C338.579 365.477 338.599 365.477 338.62 365.477H338.042V365.456Z" fill="white"/>
</g>
<path d="M193.051 403.394C193.051 406.193 190.783 408.478 187.959 408.478C185.134 408.478 182.867 406.214 182.867 403.394C182.867 400.574 185.134 398.31 187.959 398.31C190.783 398.31 193.051 400.574 193.051 403.394Z" fill="#03054E"/>
<path d="M245.314 404.71C245.314 407.51 243.047 409.795 240.222 409.795C237.398 409.795 235.13 407.53 235.13 404.71C235.13 401.89 237.398 399.626 240.222 399.626C243.047 399.626 245.314 401.89 245.314 404.71Z" fill="#03054E"/>
<path d="M363.44 361.813C363.44 361.813 363.316 361.69 363.09 361.422C362.842 361.134 362.533 360.763 362.141 360.29C361.729 359.796 361.234 359.178 360.636 358.499C360.039 357.82 359.379 357.017 358.575 356.173C357.791 355.329 356.946 354.403 355.998 353.435C355.07 352.447 354.019 351.459 352.926 350.409C350.7 348.33 348.164 346.148 345.401 344.007C342.618 341.867 339.856 339.993 337.279 338.367C335.98 337.585 334.764 336.803 333.568 336.165C332.393 335.485 331.28 334.888 330.27 334.353C329.259 333.797 328.311 333.365 327.487 332.953C326.662 332.542 325.961 332.212 325.363 331.945C324.807 331.677 324.353 331.471 324.023 331.307C323.714 331.163 323.549 331.08 323.57 331.06C323.57 331.06 323.735 331.101 324.064 331.224C324.415 331.368 324.868 331.554 325.446 331.78C326.043 332.027 326.765 332.336 327.59 332.727C328.414 333.118 329.383 333.55 330.393 334.086C331.424 334.6 332.558 335.177 333.733 335.856C334.929 336.494 336.166 337.256 337.464 338.038C340.062 339.643 342.825 341.537 345.628 343.678C348.411 345.839 350.947 348.042 353.153 350.142C354.246 351.212 355.297 352.2 356.225 353.209C357.173 354.176 358.018 355.123 358.781 355.988C359.564 356.832 360.203 357.655 360.801 358.355C361.399 359.055 361.873 359.672 362.265 360.187C362.636 360.681 362.925 361.072 363.152 361.36C363.358 361.628 363.461 361.772 363.44 361.792V361.813Z" fill="white"/>
<path d="M309.943 338.984C309.943 338.984 309.757 338.943 309.386 338.819C308.995 338.696 308.479 338.51 307.84 338.284C307.16 338.037 306.356 337.749 305.366 337.481C304.397 337.193 303.305 336.822 302.068 336.514C301.449 336.349 300.81 336.184 300.13 335.999C299.45 335.834 298.749 335.69 298.007 335.525C296.543 335.176 294.976 334.929 293.306 334.62C289.987 334.105 286.297 333.714 282.401 333.591C278.504 333.488 274.814 333.673 271.454 334.002C269.784 334.208 268.196 334.373 266.712 334.62C265.97 334.743 265.248 334.846 264.568 334.97C263.888 335.114 263.228 335.237 262.61 335.361C261.352 335.587 260.239 335.896 259.27 336.143C258.28 336.369 257.435 336.616 256.755 336.822C256.095 337.008 255.559 337.152 255.167 337.275C254.796 337.378 254.611 337.419 254.611 337.399C254.611 337.399 254.796 337.316 255.147 337.193C255.539 337.069 256.054 336.905 256.714 336.678C257.394 336.452 258.219 336.184 259.208 335.937C260.198 335.69 261.29 335.361 262.548 335.114C263.166 334.97 263.826 334.846 264.506 334.682C265.187 334.537 265.908 334.435 266.65 334.311C268.135 334.023 269.722 333.858 271.413 333.652C274.773 333.323 278.504 333.117 282.401 333.22C286.297 333.344 290.008 333.755 293.347 334.29C295.017 334.599 296.605 334.867 298.048 335.217C298.769 335.381 299.491 335.526 300.171 335.711C300.852 335.896 301.491 336.081 302.109 336.246C303.346 336.575 304.439 336.966 305.408 337.275C306.377 337.584 307.201 337.893 307.861 338.14C308.5 338.387 309.015 338.593 309.386 338.737C309.737 338.881 309.922 338.963 309.902 338.963L309.943 338.984Z" fill="white"/>
<path d="M255.393 424.863C255.393 424.863 255.703 424.966 256.177 425.296C256.651 425.625 257.269 426.201 257.847 427.066C258.403 427.93 258.898 429.104 258.98 430.483C259.084 431.862 258.671 433.406 257.785 434.723C256.898 436.041 255.62 437.008 254.301 437.441C252.981 437.893 251.703 437.873 250.693 437.688C249.683 437.482 248.899 437.111 248.425 436.802C247.931 436.494 247.724 436.267 247.724 436.247C247.766 436.164 248.755 437.049 250.734 437.379C251.703 437.523 252.92 437.502 254.156 437.049C255.373 436.617 256.568 435.711 257.414 434.476C258.238 433.221 258.63 431.78 258.568 430.503C258.506 429.207 258.073 428.074 257.579 427.231C256.527 425.522 255.332 424.946 255.393 424.863Z" fill="#03054E"/>
<path d="M513.599 125.531C514.96 140.682 503.725 154.082 488.51 155.441C473.296 156.799 459.855 145.622 458.494 130.451C457.133 115.301 468.369 101.9 483.583 100.542C498.797 99.1829 512.239 110.36 513.599 125.531Z" fill="#76B963"/>
<g opacity="0.3">
<path d="M506.982 125.469C506.858 125.469 506.694 124.563 506.199 122.999C505.704 121.434 504.859 119.191 503.209 116.782C502.385 115.588 501.354 114.374 500.097 113.221C498.839 112.089 497.355 110.998 495.664 110.133C494.819 109.701 493.932 109.289 492.984 108.96C492.036 108.631 491.067 108.343 490.036 108.157C489.026 107.972 487.975 107.828 486.903 107.807C485.831 107.766 484.738 107.807 483.645 107.951C482.553 108.096 481.481 108.301 480.45 108.59C479.419 108.878 478.43 109.248 477.481 109.681C476.533 110.113 475.646 110.607 474.822 111.163C473.977 111.698 473.214 112.295 472.492 112.933C471.049 114.189 469.874 115.588 468.926 116.988C467.977 118.408 467.277 119.829 466.741 121.187C465.689 123.905 465.421 126.292 465.318 127.939C465.236 129.586 465.277 130.512 465.153 130.533C465.05 130.533 464.803 129.648 464.7 127.939C464.617 126.251 464.7 123.74 465.668 120.817C466.143 119.355 466.844 117.811 467.792 116.268C468.761 114.744 469.977 113.201 471.503 111.821C472.265 111.121 473.07 110.463 473.977 109.866C474.863 109.269 475.811 108.713 476.842 108.24C477.852 107.766 478.924 107.354 480.038 107.025C481.151 106.716 482.305 106.469 483.48 106.325C484.655 106.181 485.831 106.14 486.985 106.181C488.139 106.222 489.273 106.387 490.366 106.593C491.459 106.799 492.51 107.128 493.52 107.499C494.53 107.869 495.479 108.301 496.386 108.795C498.179 109.763 499.746 110.977 501.045 112.233C502.344 113.509 503.374 114.847 504.199 116.144C505.828 118.758 506.529 121.167 506.858 122.834C507.168 124.501 507.126 125.448 507.023 125.448L506.982 125.469Z" fill="white"/>
</g>
<path d="M489.542 140.29L489.913 143.934L486.656 144.263L486.285 140.722C483.028 140.867 479.832 140.167 477.894 138.952L479.276 134.794C481.028 135.823 483.461 136.461 485.852 136.441L485.275 131.007C481.564 130.512 477.4 129.71 476.905 125.058C476.554 121.599 478.74 118.388 483.832 117.256L483.461 113.633L486.718 113.304L487.089 116.844C489.563 116.783 491.995 117.194 493.913 118.141L492.696 122.32C490.944 121.558 489.171 121.167 487.522 121.146L488.099 126.684C491.81 127.157 495.912 127.939 496.387 132.53C496.737 135.926 494.572 139.096 489.501 140.249L489.542 140.29ZM484.78 126.231L484.306 121.599C482.615 122.176 482.038 123.184 482.141 124.255C482.265 125.387 483.296 125.902 484.78 126.21V126.231ZM491.212 133.497C491.088 132.365 490.078 131.83 488.635 131.501L489.109 135.988C490.697 135.453 491.336 134.547 491.233 133.497H491.212Z" fill="#282846"/>
<path d="M465.051 129.936C465.051 129.936 465.05 129.998 465.092 130.101C465.112 130.224 465.133 130.389 465.174 130.595C465.215 130.821 465.257 131.089 465.298 131.398C465.36 131.707 465.401 132.077 465.504 132.489C465.855 134.115 466.617 136.441 468.184 138.973C468.947 140.249 469.998 141.505 471.194 142.76C471.524 143.049 471.854 143.357 472.183 143.646C472.348 143.79 472.513 143.954 472.699 144.098C472.884 144.243 473.07 144.366 473.256 144.51C473.627 144.778 473.998 145.087 474.389 145.334C474.802 145.581 475.214 145.828 475.626 146.095C477.337 147.042 479.255 147.865 481.337 148.318C483.419 148.771 485.645 148.936 487.913 148.751C490.16 148.504 492.325 147.948 494.304 147.124C496.283 146.301 498.015 145.128 499.52 143.893C499.891 143.563 500.241 143.234 500.612 142.925C500.963 142.596 501.272 142.225 501.581 141.896C501.746 141.731 501.891 141.546 502.055 141.381C502.2 141.217 502.344 141.011 502.468 140.846C502.736 140.496 503.004 140.126 503.272 139.796C504.22 138.335 505.024 136.914 505.54 135.515C506.612 132.736 506.941 130.327 507.003 128.66C507.044 128.248 507.024 127.878 507.003 127.548C507.003 127.24 507.003 126.972 507.003 126.746C507.003 126.54 507.003 126.375 507.003 126.252C507.003 126.149 507.003 126.087 507.003 126.087C507.003 126.087 507.003 126.149 507.024 126.252C507.024 126.375 507.044 126.54 507.065 126.746C507.065 126.972 507.086 127.24 507.106 127.569C507.106 127.898 507.168 128.269 507.106 128.681C507.106 130.348 506.797 132.798 505.746 135.618C505.23 137.038 504.447 138.479 503.478 139.961C503.21 140.311 502.942 140.681 502.674 141.031C502.53 141.217 502.406 141.402 502.262 141.587C502.097 141.752 501.952 141.937 501.787 142.102C501.458 142.452 501.169 142.822 500.798 143.152C500.447 143.481 500.076 143.81 499.705 144.14C498.18 145.395 496.427 146.589 494.407 147.433C492.407 148.277 490.222 148.854 487.934 149.101C485.645 149.286 483.378 149.101 481.254 148.648C479.131 148.195 477.193 147.33 475.461 146.383C475.028 146.116 474.616 145.869 474.204 145.622C473.791 145.354 473.42 145.045 473.049 144.778C472.864 144.634 472.678 144.49 472.493 144.346C472.307 144.201 472.142 144.037 471.977 143.893C471.648 143.584 471.318 143.275 470.988 142.987C469.771 141.711 468.72 140.414 467.978 139.117C466.411 136.544 465.69 134.177 465.36 132.55C465.257 132.139 465.215 131.768 465.174 131.46C465.133 131.151 465.092 130.883 465.071 130.657C465.051 130.451 465.03 130.286 465.009 130.163C465.009 130.06 465.009 129.998 465.009 129.998L465.051 129.936Z" fill="#263238"/>
</g>
<defs>
<linearGradient id="paint0_linear_950_12517" x1="354.037" y1="-3.99999" x2="353.819" y2="511.109" gradientUnits="userSpaceOnUse">
<stop stop-color="#6268CD"/>
<stop offset="0.739583" stop-color="#FCD6D4"/>
<stop offset="1" stop-color="#FFD8D6"/>
</linearGradient>
<clipPath id="clip0_950_12517">
<rect width="575.688" height="575.688" fill="white" transform="translate(0.716309)"/>
</clipPath>
</defs>
</svg>
