<svg width="682" height="720" viewBox="0 0 682 720" fill="none" xmlns="http://www.w3.org/2000/svg">
<g clip-path="url(#clip0_1965_2892)">
<path d="M634.592 84.7061H0.365723V720H634.592V84.7061Z" fill="white"/>
<path d="M634.592 -174.996H0.365723V720.001H634.592V-174.996Z" fill="url(#paint0_linear_1965_2892)"/>
<path d="M634.592 448.446L580.615 405.537L483.233 482.336H435.199L366.144 464.837L235.29 478.316L90.0286 363.993L0.365723 455.637V720.001H634.592V448.446Z" fill="#76B963"/>
<path opacity="0.25" d="M594.25 477.311L589.104 506.304L595.485 506.484L601.917 484.218L617.559 502.747L609.301 478.058L597.26 462.956L596.925 454.297L616.582 474.631L634.591 486.434V448.447L580.614 405.537L574.336 456.874L591.805 470.224L594.25 477.311Z" fill="white"/>
<path opacity="0.25" d="M611.258 513.184L605.649 521.405L586.585 525.374L554.27 503.778L437.618 502.515L366.145 464.785L295.598 490.583L223.199 483.496L235.291 478.264L90.0298 363.941L89.6181 387.213L101.222 401.697L86.0162 441.565L121.392 491.974L80.0729 484.475L48.5301 502.206L24.7829 471.821L0.392578 481.46V511.483L16.0611 511.329L52.2864 531.431L74.3355 531.173L118.331 539.574L115.449 520.014L135.594 521.225L182.008 545.631L232.41 542.28L156.537 503.288L154.633 479.475L118.048 426.798L129.265 427.777L165.259 464.244C165.259 464.244 155.56 436.308 154.865 436.102C155.431 436.127 161.143 437.236 161.143 437.236L179.101 470.507L210.669 498.83L334.216 491.588L366.608 539.471L396.556 545.657L374.224 499.551L380.939 499.139L409.883 520.607L516.45 506.613L559.776 540.348L634.619 543.517V512.437L611.258 513.21V513.184Z" fill="white"/>
<g opacity="0.8">
<path d="M31.3169 620.29L47.7058 618.332L46.5223 612.714L46.2393 604.956L47.9631 603.951L48.4262 612.147L49.7898 618.332H61.1874L62.6797 604.905L62.7568 593.05L57.2767 585.396L70.3467 584.854L64.7379 592.277L64.7636 592.302L64.8408 605.626L63.5287 618.332H75.2608L74.5146 612.688L71.9676 605.162L74.1287 604.879L76.6758 611.915L76.9846 614.079L77.9622 605.42L81.0754 595.653L78.271 587.406L93.5535 595.498L82.7991 597.946L80.1234 606.168L78.8627 618.332H99.0079L100.68 607.92L103.999 596.194L99.3939 590.705L113.261 591.555L106.083 596.812L102.996 608.203L101.478 618.332H118.561L117.97 613.126L119.024 608.384L121.443 608.616L120.491 613.693L121.134 618.332L136.159 625.883V629.62L25.3223 626.991L31.3169 620.29Z" fill="white"/>
<path d="M587.124 575.448L588.333 566.841L598.136 562.434L604.568 569.495L600.966 576.35L599.396 575.809L601.789 569.778L597.801 565.655L590.572 568.078L589.44 575.397L597.158 591.865L599.628 602.096L597.801 613.77L594.045 614.028L596.875 602.56L594.868 595.55L582.287 589.623L582.75 588.308L594.328 592.741L587.124 575.448Z" fill="white"/>
<path d="M76.3669 615.136L81.0752 619.079L145.138 620.265L152.6 616.889L209.33 612.637L288.805 614.337L328.221 621.425L384.694 617.946L396.889 613.281L533.429 620.497L538.703 617.791L581.798 611.786L634.592 617.121V720.001H0.365723V617.121L76.3669 615.136Z" fill="white"/>
<path d="M577.373 604.287L582.287 616.167H578.916L575.006 606.142L563.659 600.782L563.196 598.514L577.373 604.287Z" fill="white"/>
<path d="M505.075 617.198L505.564 614.466L504.947 610.858L502.863 606.039L504.638 605.833L506.722 610.343L506.979 611.735L507.777 606.194L510.324 599.957L508.034 594.674L520.59 599.828L511.765 601.4L509.552 606.658L507.725 617.301H512.357L515.856 611.116L516.73 608.075L518.711 608.255L517.94 611.477L514.826 617.379L523.806 619.981H493.858L505.075 617.198Z" fill="white"/>
</g>
<path d="M557.716 456.563L559.259 486.639L516.473 542.151L478.473 543.156L476.723 540.037L481.226 502.076L491.208 494.035C491.208 494.035 502.657 500.04 506.516 494.654C508.266 492.18 503.429 482.438 503.429 482.438L529.929 463.161L557.69 456.563H557.716Z" fill="#76B963"/>
<path d="M554.011 459.888L552.571 464.63L499.828 519.471L467.745 557.562L463.988 554.624L497.049 516.869L554.011 459.888Z" fill="#282846"/>
<path d="M520.744 345.23L492.212 351.751L455.42 420.019L463.679 489.268L467.024 491.175L504.407 459.192L524.475 374.662L520.744 345.23Z" fill="#76B963"/>
<path d="M381.503 443.961L411.4 444.219L454.211 479.165L452.668 516.018L449.709 519.781L422.54 517.41L388.733 473.65L381.503 443.961Z" fill="#76B963"/>
<path d="M478.114 621.811L461.751 521.25L480.327 429.168L512.641 361.75L510.351 362.935L477.419 427.828L456.271 519.987L403.502 464.553L397.019 463.47L455.756 526.43L469.006 621.424L478.114 621.811Z" fill="#282846"/>
<path d="M431.134 591.323L430.208 588.462L442.84 589.622L443.689 581.993L428.587 576.581V573.36L444.153 577.87L444.924 570.757L430.928 564.778L430.697 561.943L445.387 566.737L446.391 557.717L435.019 552.872V549.908L446.828 553.98L449.736 545.681L443.664 541.403L444.307 537.821L450.919 542.279L453.801 534.007L450.43 531.043L451.511 528.337L455.01 530.553L457.145 524.497L459.461 525.734L457.197 533.646L462.754 532.589L461.622 535.837L456.245 536.919L454.058 544.47L462.908 543.259V546.119L452.952 548.387L451.073 554.882L450.893 556.505L463.655 555.294L463.603 558.155L450.507 560.294L449.684 568.309L465.275 565.886L464.838 568.85L449.272 572.174L448.501 579.519L466.124 577.432L465.044 580.653L448.012 584.261L447.317 591.065V591.091L456.991 589.751V592.637L447.909 594.673L452.488 622.223H446.777L442.969 593.204L431.134 591.323Z" fill="#1C53BE"/>
<path d="M435.018 606.012L442.685 622.223H437.411L431.287 608.538L413.612 601.193L412.917 598.101L435.018 606.012Z" fill="#1C53BE"/>
<path d="M480.403 558.438L482.41 560.913L480.017 577.174L467.977 596.555L488.225 592.689V595.214L466.973 600.085L464.889 622.223H458.895L463.783 596.555L476.596 575.448L480.403 558.438Z" fill="#1C53BE"/>
<path opacity="0.5" d="M70.4762 188.591L62.5776 195.266L73.3578 202.946L170.276 206.425L183.809 213.692L260.994 215.11L265.187 205.652L217.127 195.291L217.024 185.833L179.976 180.035L166.262 167.097L144.908 168.412L130.603 155.423L95.2782 158.258L91.5991 176.891L70.0388 178.334L70.4762 188.591Z" fill="white"/>
<path opacity="0.5" d="M448.68 254.721L440.781 261.396L451.561 269.101L548.48 272.555L562.013 279.822L639.197 281.24L643.365 271.781L595.331 261.421L595.228 251.963L558.153 246.165L544.44 233.227L523.086 234.542L508.781 221.553L473.456 224.388L469.803 243.02L448.217 244.464L448.68 254.721Z" fill="white"/>
<path d="M454.726 628.434C455.292 628.434 455.884 628.305 456.424 628.022C458.199 627.094 458.868 624.877 457.942 623.099L418.552 548.388C417.729 546.815 415.876 546.068 414.178 546.635L261.507 598.255L192.298 442.183C191.475 440.353 189.339 439.503 187.487 440.327C185.66 441.152 184.811 443.291 185.635 445.147L256.181 604.234C256.953 605.961 258.883 606.812 260.658 606.219L413.535 554.547L451.484 626.527C452.128 627.764 453.388 628.46 454.7 628.46L454.726 628.434Z" fill="#576E74"/>
<path d="M192.505 657.633H337.304C371.625 657.633 399.541 629.671 399.541 595.292C399.541 560.912 371.625 532.95 337.304 532.95H334.422C329.817 532.95 325.186 533.337 320.658 534.136L241.775 548.336C241.569 548.362 237.144 549.186 234.108 550.088C223.997 553.078 216.947 562.562 216.922 573.154C216.922 579.442 219.417 585.421 223.971 589.983C228.602 594.647 234.983 597.302 241.466 597.302H295.213C297.219 597.302 298.84 595.678 298.84 593.668C298.84 591.658 297.219 590.034 295.213 590.034H241.466C236.912 590.034 232.41 588.153 229.117 584.854C225.926 581.658 224.177 577.509 224.203 573.18C224.203 565.783 229.142 559.16 236.166 557.098C238.842 556.299 243.036 555.552 243.061 555.526L321.893 541.326C326.009 540.604 330.203 540.244 334.397 540.244H337.278C367.586 540.244 392.259 564.958 392.259 595.317C392.259 625.676 367.612 650.391 337.278 650.391H192.48C190.473 650.391 188.852 652.015 188.852 654.025C188.852 656.035 190.473 657.659 192.48 657.659L192.505 657.633Z" fill="#576E74"/>
<path d="M258.164 600.575L158.287 599.389L77.9121 435.689L84.0354 432.57L188.312 441.797L258.164 600.575Z" fill="#282846"/>
<path d="M415.441 548.464L258.164 600.574L158.287 599.389L321.173 544.212L415.441 548.464Z" fill="#282846"/>
<path d="M188.312 441.796C197.111 439.708 202.926 431.642 202.926 418.138C202.926 409.917 197.24 397.727 185.096 396.361L79.6616 384.97V435.482L188.312 441.77V441.796Z" fill="#282846"/>
<path d="M453.877 622.892L361.564 622.094L321.171 544.212L415.439 548.464L453.877 622.892Z" fill="#282846"/>
<path opacity="0.3" d="M197.831 425.277C198.294 425.2 200.146 431.462 202.282 425.406C200.352 435.07 194.924 440.199 188.44 441.771L79.0693 435.715L81.1791 415.716L102.971 417.752C102.971 417.752 102.533 423.138 104.386 422.494C106.882 421.669 109.197 418.448 109.197 418.448L197.805 425.251L197.831 425.277Z" fill="black"/>
<path d="M79.0689 435.714C93.065 435.714 104.411 424.349 104.411 410.329C104.411 396.31 93.065 384.944 79.0689 384.944C65.0727 384.944 53.7266 396.31 53.7266 410.329C53.7266 424.349 65.0727 435.714 79.0689 435.714Z" fill="#282846"/>
<path d="M225.284 481.201L214.35 482.18L212.343 487.876L239.332 535.605L254.1 530.502L283.481 468.934L271.183 462.568L243.448 513.158L227.831 485.685L225.284 481.201Z" fill="#BED8DC"/>
<path opacity="0.3" d="M214.35 482.18L225.284 481.201L227.831 485.685L219.521 486.716L239.821 518.802L243.448 513.158L271.183 462.568L283.481 468.934L254.1 530.502L239.332 535.605L212.343 487.876L214.35 482.18Z" fill="black"/>
<path d="M242.162 530.708L235.035 516.018L224.307 508.467L214.376 482.18L229.452 480.84L225.593 473.676L223.123 473.573C214.581 461.847 206.014 446.59 206.014 446.59L189.831 443.987L182.936 437.415L144.858 431.385L142.568 435.946L113.907 438.137L105.905 452.337L110.511 474.501L142.259 525.219L162.79 546.377L162.945 552.253L167.782 557.459L174.445 557.176L241.416 535.089L242.162 530.708V530.708Z" fill="#576E74"/>
<path opacity="0.15" d="M202.154 452.466L214.58 471.898L219.057 472.748L219.932 473.779L215.687 473.908L220.06 481.665L214.349 482.181L199.504 455.997C199.504 455.997 196.236 456.59 191.502 459.038C188.106 460.79 185.07 463.599 185.07 463.599L189.881 475.274L186.717 478.135L179.436 462.182L186.665 445.121L192.48 452.26L196.107 452.878L189.804 443.987L204.521 446.333L202.179 452.466H202.154Z" fill="black"/>
<path opacity="0.2" d="M162.198 478.289L159.316 478.186L152.936 467.826L159.136 474.526L165.851 478.057L182.137 501.844L209.126 501.715L224.28 513.544L216.407 520.528L228.216 524.368L239.82 525.889L242.135 530.657L192.017 585.344L165.182 595.24L160.989 564.52L142.207 525.219L110.458 474.501L93.2461 436.488L142.516 435.946L157.618 459.45L160.474 458.471L163.767 450.559L175.962 462.8L184.581 478.933L179.796 478.237L170.354 462.336L152.472 461.615L136.855 441.668L117.276 441.771C117.276 441.771 127.207 463.676 143.288 483.057L138.399 484.809L146.812 493.417L170.379 489.938L162.172 478.263L162.198 478.289Z" fill="black"/>
<path d="M170.997 427.803V433.267L181.597 443.988L176.477 460.353L164.102 443.472L148.665 435.122L146.195 415.948L156.204 412.366L171.358 416.129L170.997 427.803Z" fill="#BED8DC"/>
<path opacity="0.3" d="M170.997 427.803V433.267L181.597 443.988L176.477 460.353L164.102 443.472L148.665 435.122L146.195 415.948L156.204 412.366L171.358 416.129L170.997 427.803Z" fill="black"/>
<path d="M243.782 478.083L249.21 463.934L264.853 460.661L264.673 465.3L255.694 469.423L250.42 479.32L243.782 478.083Z" fill="#BED8DC"/>
<path opacity="0.3" d="M243.782 478.083L249.21 463.934L264.853 460.661L264.673 465.3L255.694 469.423L250.42 479.32L243.782 478.083Z" fill="black"/>
<path d="M308.746 442.75L260.84 441.281L251.14 504.422L295.779 502.076L308.746 442.75Z" fill="#F1B643"/>
<path d="M149.616 495.865L168.758 492.128L180.079 507.746C180.079 507.746 217.693 493.468 242.161 479.32L249.648 465.094L265.779 466.331L277.228 470.48L277.769 474.758L265.831 472.645L257.984 472.696L264.493 473.959L273.729 475.712L280.959 478.521L280.419 481.871L271.311 480.531H262.872L265.625 481.536L271.44 483.598L278.927 488.958L277.589 491.226L272.314 489.706L270.127 492.154L255.411 491.149L245.48 495.092L183.32 536.79L173.621 538.62L148.073 510.503L149.642 495.839L149.616 495.865Z" fill="#BED8DC"/>
<path opacity="0.2" d="M149.616 495.865L168.758 492.128L172.489 497.283L156.28 503.262C161.76 514.447 174.033 525.09 174.033 525.09C174.033 525.09 213.731 508.364 239.176 490.067L242.161 479.346L245.48 495.092L183.32 536.816L173.621 538.646L148.073 510.529L149.642 495.865H149.616Z" fill="black"/>
<path opacity="0.3" d="M242.135 479.32L249.622 465.094L255.385 491.175L245.454 495.092L242.135 479.32Z" fill="black"/>
<path d="M195.028 398.759L201.177 380.409L191.76 364.225L151.83 357.679L135.57 374.92C135.57 374.92 137.86 393.475 138.631 395.64C140.793 401.697 141.333 420.381 141.333 420.381L156.641 419.144L195.028 398.784V398.759Z" fill="#282846"/>
<path opacity="0.3" d="M195.028 398.759L201.177 380.409L191.76 364.225L151.83 357.679L135.57 374.92C135.57 374.92 137.86 393.475 138.631 395.64C140.793 401.697 141.333 420.381 141.333 420.381L156.641 419.144L195.028 398.784V398.759Z" fill="black"/>
<path d="M147.893 412.082L148.047 407.598L145.475 407.624L143.648 392.315L145.706 389.738L152.318 392.676L153.296 407.366L155.817 404.351L157.078 378.76L163.304 373.09L169.016 377.394L197.085 379.971L194.924 406.799L191.991 417.03L186.511 433.55L181.7 435.148L172.592 435.457L151.727 425.973L146.195 415.974L147.893 412.082Z" fill="#BED8DC"/>
<path opacity="0.2" d="M143.648 392.315L145.706 389.738L152.318 392.702L153.296 407.366L155.817 404.351L157.052 378.76L163.304 373.09L169.016 377.394L197.085 379.971L194.95 406.387C194.744 405.356 193.972 400.975 194.101 396.362C194.204 392.238 194.899 385.666 194.899 385.666L188.93 384.249L166.289 386.903L161.709 397.805L161.478 413.216C161.478 413.216 162.095 417.932 163.021 421.231C165.543 430.277 172.386 433.163 172.386 433.163L186.537 433.55L181.751 435.122L172.618 435.431L151.778 425.947L146.247 415.948L147.945 412.056L148.099 407.572H145.552L143.725 392.29L143.648 392.315Z" fill="black"/>
<path d="M189.753 360.333L204.006 373.708L203.852 376.93L207.402 384.635L179.204 392.728L176.606 391.903L189.316 379.816L194.127 377.703L194.899 376.311L188.647 377.703L163.176 391.594L161.915 389.506L178.484 371.311L171.357 374.533L154.145 386.955L153.245 382.548L163.176 371.956L160.063 372.136L152.601 376.93L148.562 372.677L152.781 357.446L189.753 360.333Z" fill="#282846"/>
<path d="M151.65 427.029L168.785 440.276L187.078 439.193L192.969 430.457L192.017 417.03L191.168 419.865L187.464 429.4L187.309 423.653L188.596 423.55L187.721 418.756L169.454 418.061L165.517 428.524L158.108 421.9L155.561 403.525L153.58 405.999L151.701 426.977L151.65 427.029ZM170.432 423.369L185.817 423.704L186.229 430.354L184.402 431.951L182.935 429.117H179.153L172.773 432.75L172.207 424.143L170.483 423.318L170.432 423.369Z" fill="#282846"/>
<path opacity="0.57" d="M197.833 401.567L196.367 409.041L186.796 408.912L187.079 400.769L197.833 401.567Z" fill="white"/>
<path opacity="0.57" d="M177.327 399.506L177.07 408.165L163.717 408.036L163.897 398.655L177.327 399.506Z" fill="white"/>
<path d="M162.611 408.783L178.074 409.35L178.408 405.433L180.749 404.479L185.689 405.072L185.843 409.737H197.061L199.042 400.485L186.152 399.325L185.895 402.495L180.518 402.16L178.717 403.191L178.305 398.242L162.945 397.495L162.637 408.783H162.611ZM187.464 408.061L187.722 401.541L197.164 402.211L196.109 408.19L187.464 408.061ZM164.798 406.927L165.055 399.737L176.247 400.407L176.195 407.263L164.798 406.927V406.927Z" fill="#1C53BE"/>
<path d="M391.54 522.332L405.768 512.307L411.325 508.39L431.007 477.979L441.221 483.701L444.514 488.52C444.514 488.52 441.272 509.034 437.954 513.003C431.084 521.25 421.513 543.542 421.513 543.542L400.313 539.78L399.516 535.063L390.331 531.352L391.54 522.307V522.332Z" fill="#282846"/>
<path d="M403.272 580.344L415.724 588.642L418.889 587.044L426.968 590.137L462.009 589.235L469.007 596.322L470.397 602.945C470.397 602.945 466.563 608.77 461.572 610.625C450.252 614.852 406.334 622.918 406.334 622.918L391.694 602.945L395.065 598.745L391.334 588.23L403.272 580.37V580.344Z" fill="#282846"/>
<path opacity="0.3" d="M391.539 522.332L405.766 512.307L411.324 508.39L414.205 503.931L420.406 512.281L412.121 521.688L412.533 528.466L431.16 511.637L441.194 483.727L444.487 488.546C444.487 488.546 441.246 509.06 437.927 513.029C431.057 521.276 421.486 543.568 421.486 543.568L400.286 539.805L399.489 535.089L390.304 531.378L391.513 522.332H391.539Z" fill="black"/>
<path opacity="0.3" d="M395.038 598.745L391.307 588.23L403.245 580.37L415.697 588.669L418.862 587.071L426.941 590.163L429.025 590.112L426.709 599.621L412.327 605.987L414.72 613.564L459.95 603.977L469.006 596.348L470.396 602.972C470.396 602.972 466.562 608.796 461.571 610.652C450.251 614.878 406.332 622.945 406.332 622.945L391.693 602.972L395.063 598.771L395.038 598.745Z" fill="black"/>
<path d="M225.695 539.547L229.606 536.145L304.269 485.04L317.622 484.087L396.35 507.024L403.065 506.585L407.388 518.672L396.813 538.465L369.902 529.909L408.417 578.875L416.161 582.818L409.137 596.322L391.179 607.017L339.903 547.098L324.234 544.367L279.03 561.041L195.31 588.771L177.403 572.122L173.775 555.706L225.695 539.547Z" fill="#1C53BE"/>
<path opacity="0.3" d="M225.695 539.547L198.783 559.829L212.291 569.958L322.768 498.364L396.119 518.956L407.722 518.646L396.813 538.465L369.902 529.909L351.918 507.075L338.822 509.652L323.925 534.032L347.158 529.599L398.357 591.966L409.137 596.322L391.179 607.017L339.903 547.098L324.234 544.366L285.796 558.541L283.146 561.041L195.31 588.771L177.403 572.122L173.775 555.706L225.695 539.547Z" fill="black"/>
<path d="M362.235 628.253C362.955 628.253 363.676 628.073 364.345 627.738C366.557 626.552 367.406 623.821 366.249 621.578L325.366 544.032C324.337 542.047 321.996 541.12 319.886 541.841L161.992 595.214L80.8452 428.447C79.7389 426.179 77.0117 425.251 74.7734 426.359C72.5093 427.467 71.5831 430.199 72.6894 432.441L155.586 602.817C156.589 604.878 158.956 605.858 161.117 605.136L319.114 551.712L358.17 625.831C358.993 627.377 360.563 628.253 362.183 628.253H362.235Z" fill="#BED8DC"/>
<path d="M90.133 658.534H240.412C276.457 658.534 305.787 629.155 305.787 593.049C305.787 556.943 276.457 527.563 240.412 527.563H237.427C232.616 527.563 227.779 527.976 223.019 528.801L141.178 543.542C140.972 543.568 136.341 544.418 133.125 545.372C122.319 548.567 114.755 558.721 114.729 570.061C114.729 576.787 117.405 583.178 122.268 588.075C127.233 593.049 134.025 595.91 140.972 595.91H196.751C199.272 595.91 201.305 593.874 201.305 591.348C201.305 588.822 199.272 586.786 196.751 586.786H140.972C136.444 586.786 131.967 584.905 128.725 581.632C125.561 578.462 123.837 574.365 123.837 570.061C123.837 562.716 128.725 556.17 135.698 554.108C138.451 553.309 142.747 552.51 142.773 552.51L224.589 537.795C228.808 537.073 233.131 536.687 237.427 536.687H240.412C271.44 536.687 296.679 561.968 296.679 593.049C296.679 624.129 271.44 649.411 240.412 649.411H90.133C87.6116 649.411 85.5791 651.447 85.5791 653.973C85.5791 656.498 87.6116 658.534 90.133 658.534Z" fill="#BED8DC"/>
<path d="M301.024 283.815C269.026 293.473 250.989 327.81 261.118 359.709C265.407 373.237 274.045 384.174 284.994 391.486C285.116 391.578 285.177 391.7 285.147 391.852L281.618 406.476C281.527 406.781 281.922 407.025 282.166 406.811L294.028 396.666C294.028 396.666 294.271 396.574 294.393 396.605C307.32 402.241 322.254 403.399 336.762 398.738C367.665 388.805 385.185 355.718 376.03 324.52C366.631 292.377 332.9 274.188 301.024 283.815V283.815Z" fill="#76B963"/>
<path d="M308.595 349.503L293.965 334.848L284.141 344.689L298.771 359.344L308.595 369.185L318.419 359.344L347.345 330.339L337.521 320.498L308.595 349.503Z" fill="white"/>
</g>
<g filter="url(#filter0_bd_1965_2892)">
<g clip-path="url(#clip1_1965_2892)">
<rect x="500.896" y="153.152" width="169" height="136" rx="16" fill="white"/>
<path d="M518.192 183.152H522.928C525.344 183.152 526.736 181.984 526.736 179.984C526.736 178.624 526.112 177.696 524.88 177.296C525.984 176.832 526.56 175.904 526.56 174.608C526.56 172.656 525.152 171.456 522.848 171.456H518.192V183.152ZM522.672 173.264C523.824 173.264 524.464 173.808 524.464 174.816C524.464 175.856 523.84 176.448 522.72 176.448H520.24V173.264H522.672ZM522.848 178.176C523.984 178.176 524.64 178.736 524.64 179.728C524.64 180.784 524 181.344 522.848 181.344H520.24V178.176H522.848ZM530.678 183.36C531.91 183.36 532.982 182.8 533.318 181.984L533.462 183.152H535.174V178.352C535.174 176.16 533.862 175.008 531.734 175.008C529.59 175.008 528.182 176.128 528.182 177.84H529.846C529.846 177.008 530.486 176.528 531.638 176.528C532.63 176.528 533.27 176.96 533.27 178.032V178.208L530.902 178.384C529.03 178.528 527.974 179.44 527.974 180.896C527.974 182.384 528.998 183.36 530.678 183.36ZM531.318 181.888C530.438 181.888 529.958 181.536 529.958 180.816C529.958 180.176 530.422 179.776 531.638 179.664L533.286 179.536V179.952C533.286 181.168 532.518 181.888 531.318 181.888ZM539.06 183.152V171.248H537.124V183.152H539.06ZM543.46 183.36C544.692 183.36 545.764 182.8 546.1 181.984L546.244 183.152H547.956V178.352C547.956 176.16 546.644 175.008 544.516 175.008C542.372 175.008 540.964 176.128 540.964 177.84H542.628C542.628 177.008 543.268 176.528 544.42 176.528C545.412 176.528 546.052 176.96 546.052 178.032V178.208L543.684 178.384C541.812 178.528 540.756 179.44 540.756 180.896C540.756 182.384 541.78 183.36 543.46 183.36ZM544.1 181.888C543.22 181.888 542.74 181.536 542.74 180.816C542.74 180.176 543.204 179.776 544.42 179.664L546.068 179.536V179.952C546.068 181.168 545.3 181.888 544.1 181.888ZM551.825 183.152V178.896C551.825 177.616 552.561 176.784 553.761 176.784C554.769 176.784 555.425 177.424 555.425 178.752V183.152H557.377V178.288C557.377 176.24 556.353 175.008 554.369 175.008C553.297 175.008 552.337 175.472 551.841 176.272L551.681 175.248H549.873V183.152H551.825ZM558.831 179.184C558.831 181.696 560.399 183.36 562.799 183.36C564.863 183.36 566.399 182.096 566.639 180.256H564.671C564.463 181.12 563.775 181.6 562.799 181.6C561.551 181.6 560.783 180.672 560.783 179.184C560.783 177.696 561.615 176.752 562.863 176.752C563.791 176.752 564.447 177.216 564.671 178.112H566.623C566.415 176.208 564.943 175.008 562.783 175.008C560.447 175.008 558.831 176.736 558.831 179.184ZM571.628 183.36C573.692 183.36 575.132 182.32 575.468 180.592H573.66C573.436 181.344 572.732 181.76 571.66 181.76C570.364 181.76 569.628 181.056 569.484 179.664L575.436 179.648V179.056C575.436 176.592 573.932 175.008 571.564 175.008C569.244 175.008 567.628 176.72 567.628 179.2C567.628 181.648 569.276 183.36 571.628 183.36ZM571.58 176.608C572.748 176.608 573.5 177.328 573.5 178.416H569.532C569.724 177.232 570.428 176.608 571.58 176.608Z" fill="#062D78"/>
<path d="M523.136 231.432H524.984V229.392C528.2 229.032 530.264 227.016 530.264 224.088C530.264 221.544 528.872 220.056 525.8 219.384L524.984 219.192V214.032C526.232 214.296 526.952 215.136 527 216.432H529.976C529.88 213.552 528.008 211.656 524.984 211.344V209.304H523.136V211.344C519.944 211.68 517.832 213.696 517.832 216.504C517.832 219.144 519.344 220.824 522.368 221.472L523.136 221.64V226.752C521.576 226.56 520.688 225.696 520.664 224.328H517.592C517.664 227.256 519.8 229.2 523.136 229.44V231.432ZM523.04 218.76C521.504 218.424 520.832 217.68 520.832 216.408C520.832 215.112 521.696 214.248 523.136 214.008V218.784L523.04 218.76ZM525.152 222.072C526.592 222.384 527.288 223.128 527.288 224.352C527.288 225.576 526.424 226.416 524.984 226.704V222.024L525.152 222.072ZM543.784 220.464C546.232 220.464 547.384 221.76 547.384 223.536C547.384 225.48 546.112 226.728 544.192 226.728C542.32 226.728 541.072 225.576 541.072 223.56H538.048C538.048 227.352 540.712 229.464 544.144 229.464C547.696 229.464 550.504 227.184 550.504 223.584C550.504 220.488 548.416 218.52 545.728 217.992L550 214.056V211.608H538.864V214.32H546.16L541.648 218.472V220.464H543.784ZM556.445 228.096C556.445 226.608 555.581 225.624 554.381 225.624C553.301 225.624 552.557 226.392 552.557 227.544C552.557 228.504 553.325 229.2 554.261 229.2C554.549 229.2 554.765 229.152 554.957 229.056C554.957 229.896 554.141 230.544 553.061 230.736V231.912C555.005 231.672 556.445 230.088 556.445 228.096ZM571.278 229.128V226.272H563.982L567.15 223.56C569.814 221.28 571.158 219.432 571.158 216.984C571.158 213.432 568.83 211.296 565.086 211.296C561.366 211.296 558.918 213.792 558.894 217.632H561.942C561.966 215.376 563.166 214.032 565.086 214.032C566.934 214.032 568.014 215.16 568.014 217.152C568.014 218.832 567.222 219.984 564.846 222L559.11 226.848V229.152L571.278 229.128ZM573.171 220.416C573.171 225.84 575.931 229.464 580.587 229.464C585.243 229.464 588.027 225.84 588.027 220.416C588.027 214.968 585.075 211.272 580.587 211.272C576.099 211.272 573.171 214.968 573.171 220.416ZM576.195 220.416C576.195 216.264 577.827 213.984 580.587 213.984C583.371 213.984 585.003 216.264 585.003 220.416C585.003 224.472 583.371 226.752 580.587 226.752C577.827 226.752 576.195 224.472 576.195 220.416ZM590.093 220.416C590.093 225.84 592.853 229.464 597.509 229.464C602.165 229.464 604.949 225.84 604.949 220.416C604.949 214.968 601.997 211.272 597.509 211.272C593.021 211.272 590.093 214.968 590.093 220.416ZM593.117 220.416C593.117 216.264 594.749 213.984 597.509 213.984C600.293 213.984 601.925 216.264 601.925 220.416C601.925 224.472 600.293 226.752 597.509 226.752C594.749 226.752 593.117 224.472 593.117 220.416Z" fill="#062D78"/>
<circle cx="618.896" cy="220.152" r="8" fill="#34D399"/>
<path d="M618.896 217.152L621.495 221.652H616.298L618.896 217.152Z" fill="white"/>
<path opacity="0.4" d="M518.87 245.236C517.834 246.65 517.47 247.49 517.47 248.694C517.47 250.738 519.094 252.32 521.194 252.32C523.28 252.32 524.876 250.808 524.876 248.694C524.876 246.692 523.462 245.18 521.362 245.18C521.012 245.18 520.648 245.25 520.298 245.39L522.832 242.03H521.236L518.87 245.236ZM518.87 248.708C518.87 247.322 519.822 246.342 521.194 246.342C522.538 246.342 523.49 247.322 523.49 248.708C523.49 250.094 522.538 251.088 521.194 251.088C519.822 251.088 518.87 250.094 518.87 248.708ZM531.551 252.152V248.092C531.551 247 532.209 246.314 533.203 246.314C534.127 246.314 534.715 246.902 534.715 247.98V252.152H536.017V248.092C536.017 247 536.675 246.3 537.669 246.3C538.593 246.3 539.195 246.916 539.195 247.994V252.152H540.483V247.672C540.483 246.09 539.531 245.11 537.963 245.11C536.899 245.11 536.073 245.642 535.751 246.496C535.401 245.642 534.645 245.11 533.581 245.11C532.615 245.11 531.887 245.558 531.537 246.202L531.411 245.306H530.235V252.152H531.551ZM541.859 248.722C541.859 250.836 543.371 252.32 545.429 252.32C547.473 252.32 548.985 250.836 548.985 248.722C548.985 246.608 547.473 245.124 545.429 245.124C543.371 245.124 541.859 246.608 541.859 248.722ZM543.189 248.722C543.189 247.294 544.099 246.3 545.429 246.3C546.745 246.3 547.669 247.294 547.669 248.722C547.669 250.15 546.745 251.144 545.429 251.144C544.099 251.144 543.189 250.15 543.189 248.722ZM551.758 252.152V248.526C551.758 247.196 552.472 246.314 553.704 246.314C554.712 246.314 555.356 246.874 555.356 248.26V252.152H556.672V247.966C556.672 246.216 555.846 245.11 554.04 245.11C553.074 245.11 552.206 245.572 551.772 246.356L551.632 245.306H550.442V252.152H551.758ZM560.427 252.152V246.412H561.771V245.306H560.427V243.164H559.111V245.306H557.767V246.412H559.111V252.152H560.427ZM564.268 252.138V248.414C564.268 247.238 564.954 246.314 566.228 246.314C567.208 246.314 567.866 246.874 567.866 248.26V252.152H569.182V247.966C569.182 246.216 568.342 245.11 566.592 245.11C565.528 245.11 564.702 245.614 564.268 246.356V241.848H562.952V252.138H564.268ZM570.363 250.164C570.363 251.466 571.385 252.32 572.995 252.32C574.619 252.32 575.739 251.494 575.739 250.192C575.739 249.17 575.165 248.638 574.003 248.358L572.799 248.064C572.127 247.896 571.791 247.588 571.791 247.126C571.791 246.496 572.253 246.132 573.079 246.132C573.877 246.132 574.339 246.566 574.367 247.252H575.627C575.599 245.95 574.619 245.11 573.121 245.11C571.609 245.11 570.545 245.908 570.545 247.168C570.545 248.176 571.119 248.778 572.337 249.072L573.541 249.352C574.255 249.534 574.479 249.814 574.479 250.276C574.479 250.906 573.947 251.284 573.023 251.284C572.155 251.284 571.623 250.864 571.623 250.164H570.363Z" fill="#415D91"/>
<path d="M569.36 275.857L493.896 294.152V315.152H673.896V236.652L642.141 243L615.002 275.857H569.36Z" fill="url(#paint1_linear_1965_2892)"/>
<path d="M500.896 294.152L568.726 276.026C569.147 275.914 569.581 275.857 570.017 275.857H612.647C614.139 275.857 615.552 275.191 616.502 274.041L641.058 244.311C641.76 243.461 642.724 242.866 643.799 242.621L669.896 236.652" stroke="#0CB0F7" stroke-width="2"/>
</g>
</g>
<defs>
<filter id="filter0_bd_1965_2892" x="408.896" y="61.1523" width="353" height="320" filterUnits="userSpaceOnUse" color-interpolation-filters="sRGB">
<feFlood flood-opacity="0" result="BackgroundImageFix"/>
<feGaussianBlur in="BackgroundImageFix" stdDeviation="46"/>
<feComposite in2="SourceAlpha" operator="in" result="effect1_backgroundBlur_1965_2892"/>
<feColorMatrix in="SourceAlpha" type="matrix" values="0 0 0 0 0 0 0 0 0 0 0 0 0 0 0 0 0 0 127 0" result="hardAlpha"/>
<feOffset dx="12" dy="12"/>
<feComposite in2="hardAlpha" operator="out"/>
<feColorMatrix type="matrix" values="0 0 0 0 0.0235294 0 0 0 0 0.176471 0 0 0 0 0.470588 0 0 0 0.1 0"/>
<feBlend mode="multiply" in2="effect1_backgroundBlur_1965_2892" result="effect2_dropShadow_1965_2892"/>
<feBlend mode="normal" in="SourceGraphic" in2="effect2_dropShadow_1965_2892" result="shape"/>
</filter>
<linearGradient id="paint0_linear_1965_2892" x1="317.664" y1="-48.138" x2="317.093" y2="720" gradientUnits="userSpaceOnUse">
<stop stop-color="#6268CD"/>
<stop offset="0.550527" stop-color="#FCD6D4"/>
<stop offset="1" stop-color="#FFD8D6"/>
</linearGradient>
<linearGradient id="paint1_linear_1965_2892" x1="583.896" y1="154.152" x2="583.896" y2="309.152" gradientUnits="userSpaceOnUse">
<stop stop-color="#0CB0F7"/>
<stop offset="1" stop-color="#0CB0F7" stop-opacity="0"/>
</linearGradient>
<clipPath id="clip0_1965_2892">
<rect width="643" height="720" fill="white" transform="translate(-0.351562)"/>
</clipPath>
<clipPath id="clip1_1965_2892">
<rect x="500.896" y="153.152" width="169" height="136" rx="16" fill="white"/>
</clipPath>
</defs>
</svg>
