<svg width="636" height="98" viewBox="0 0 636 98" fill="none" xmlns="http://www.w3.org/2000/svg">
<path d="M20.1439 73.5088L2.45586 11.9088H11.0799L25.1599 62.5968L40.1199 11.9088H48.3919L63.3519 62.5968L77.4319 11.9088H86.0559L68.3679 73.5088H58.8639L44.2559 24.3168L29.6479 73.5088H20.1439ZM113.257 28.3648C118.42 28.3648 122.556 30.0075 125.665 33.2928C128.774 36.5195 130.329 40.9195 130.329 46.4928V73.5088H122.673V46.9328C122.673 43.3541 121.705 40.5968 119.769 38.6608C117.833 36.6661 115.164 35.6688 111.761 35.6688C107.948 35.6688 104.868 36.8715 102.521 39.2768C100.174 41.6235 99.0011 45.2608 99.0011 50.1888V73.5088H91.3451V11.9088H99.0011V35.8448C102.11 30.8581 106.862 28.3648 113.257 28.3648ZM169.784 29.5088H177.968L160.016 76.2368C158.138 81.2235 155.498 85.0075 152.096 87.5888C148.752 90.2288 144.88 91.4021 140.48 91.1088V83.9808C145.877 84.3915 149.837 81.3995 152.36 75.0048L153.152 73.3328L133.968 29.5088H142.152L157.112 64.0048L169.784 29.5088ZM240.617 19.6528H213.337V39.6288H239.473V47.3728H213.337V73.5088H205.153V11.9088H240.617V19.6528ZM252.608 21.5008C251.141 21.5008 249.909 21.0021 248.912 20.0048C247.914 19.0075 247.416 17.8048 247.416 16.3968C247.416 14.9888 247.914 13.7861 248.912 12.7888C249.909 11.7328 251.141 11.2048 252.608 11.2048C254.016 11.2048 255.218 11.7328 256.216 12.7888C257.213 13.7861 257.712 14.9888 257.712 16.3968C257.712 17.8048 257.213 19.0075 256.216 20.0048C255.218 21.0021 254.016 21.5008 252.608 21.5008ZM248.736 73.5088V29.5088H256.392V73.5088H248.736ZM288.984 28.3648C294.146 28.3648 298.282 30.0075 301.392 33.2928C304.501 36.5195 306.056 40.9195 306.056 46.4928V73.5088H298.4V46.9328C298.4 43.3541 297.432 40.5968 295.496 38.6608C293.56 36.6661 290.89 35.6688 287.488 35.6688C283.674 35.6688 280.594 36.8715 278.248 39.2768C275.901 41.6235 274.728 45.2608 274.728 50.1888V73.5088H267.072V29.5088H274.728V35.8448C277.837 30.8581 282.589 28.3648 288.984 28.3648ZM363.264 28.3648C368.192 28.3648 372.181 29.9781 375.232 33.2048C378.282 36.3728 379.808 40.6848 379.808 46.1408V73.5088H372.152V46.4048C372.152 43.0021 371.272 40.3621 369.512 38.4848C367.752 36.6075 365.405 35.6688 362.472 35.6688C359.186 35.6688 356.546 36.7835 354.552 39.0128C352.616 41.1835 351.648 44.5275 351.648 49.0448V73.5088H343.992V46.4048C343.992 43.0021 343.141 40.3621 341.44 38.4848C339.797 36.6075 337.538 35.6688 334.664 35.6688C331.437 35.6688 328.738 36.7835 326.568 39.0128C324.456 41.2421 323.4 44.5861 323.4 49.0448V73.5088H315.744V29.5088H323.4V35.4048C326.392 30.7115 330.762 28.3648 336.512 28.3648C342.437 28.3648 346.749 30.8581 349.448 35.8448C352.498 30.8581 357.104 28.3648 363.264 28.3648ZM425.855 29.5088H433.511V73.5088H425.855V65.9408C422.042 71.7488 416.498 74.6528 409.223 74.6528C403.063 74.6528 397.813 72.4235 393.471 67.9648C389.13 63.4475 386.959 57.9621 386.959 51.5088C386.959 45.0555 389.13 39.5995 393.471 35.1408C397.813 30.6235 403.063 28.3648 409.223 28.3648C416.498 28.3648 422.042 31.2688 425.855 37.0768V29.5088ZM410.191 67.2608C414.65 67.2608 418.375 65.7648 421.367 62.7728C424.359 59.7221 425.855 55.9675 425.855 51.5088C425.855 47.0501 424.359 43.3248 421.367 40.3328C418.375 37.2821 414.65 35.7568 410.191 35.7568C405.791 35.7568 402.095 37.2821 399.103 40.3328C396.111 43.3248 394.615 47.0501 394.615 51.5088C394.615 55.9675 396.111 59.7221 399.103 62.7728C402.095 65.7648 405.791 67.2608 410.191 67.2608ZM451.767 36.9008C454.289 31.4448 458.865 28.7168 465.495 28.7168V36.7248C461.74 36.5488 458.513 37.5461 455.815 39.7168C453.116 41.8875 451.767 45.3781 451.767 50.1888V73.5088H444.111V29.5088H451.767V36.9008ZM496.953 36.9008H485.249V60.7488C485.249 62.9195 485.66 64.4741 486.481 65.4128C487.361 66.2928 488.681 66.7621 490.441 66.8208C492.201 66.8208 494.372 66.7621 496.953 66.6448V73.5088C490.265 74.3888 485.366 73.8608 482.257 71.9248C479.148 69.9301 477.593 66.2048 477.593 60.7488V36.9008H468.881V29.5088H477.593V19.4768L485.249 17.1888V29.5088H496.953V36.9008ZM517.507 55.4688C517.507 52.8875 518.064 50.4821 519.179 48.2528C520.293 46.0235 521.643 44.1168 523.227 42.5328C524.811 40.9488 526.395 39.4528 527.979 38.0448C529.563 36.5781 530.912 34.9941 532.027 33.2928C533.141 31.5328 533.699 29.6848 533.699 27.7488C533.699 24.8155 532.672 22.5861 530.619 21.0608C528.624 19.4768 526.013 18.6848 522.787 18.6848C516.333 18.6848 512.197 21.5301 510.379 27.2208L503.427 23.3488C504.893 19.2421 507.387 16.1328 510.907 14.0208C514.427 11.8501 518.416 10.7648 522.875 10.7648C528.096 10.7648 532.555 12.2315 536.251 15.1648C540.005 18.0981 541.883 22.1755 541.883 27.3968C541.883 29.8608 541.325 32.1781 540.211 34.3488C539.096 36.5195 537.747 38.3968 536.163 39.9808C534.579 41.5648 532.995 43.1195 531.411 44.6448C529.827 46.1115 528.477 47.7835 527.363 49.6608C526.248 51.4795 525.691 53.4155 525.691 55.4688H517.507ZM521.555 74.4768C519.971 74.4768 518.621 73.9195 517.507 72.8048C516.392 71.6901 515.835 70.3408 515.835 68.7568C515.835 67.1728 516.392 65.8235 517.507 64.7088C518.621 63.5941 519.971 63.0368 521.555 63.0368C523.197 63.0368 524.547 63.5941 525.603 64.7088C526.717 65.8235 527.275 67.1728 527.275 68.7568C527.275 70.3408 526.717 71.6901 525.603 72.8048C524.547 73.9195 523.197 74.4768 521.555 74.4768Z" fill="#0E3192"/>
<path d="M623.332 52.0599L633.288 46.0146L621.192 43.9743L615.41 32.9929L613.292 45.3005L603.187 52.0034L614.969 53.9727L620.436 64.8831L623.332 52.0599Z" fill="#0E3192"/>
</svg>
